<svg xmlns="http://www.w3.org/2000/svg" xmlns:xlink="http://www.w3.org/1999/xlink" width="428" zoomAndPan="magnify" viewBox="0 0 321 694.499979" height="926" preserveAspectRatio="xMidYMid meet" version="1.0"><defs><g/></defs><path fill="rgb(10.978699%, 75.289917%, 84.309387%)" d="M 262.972656 351.496094 C 260.363281 359.335938 272.148438 364.96875 272.148438 364.96875 C 273.15625 367.875 260.484375 359.105469 255.082031 365.34375 C 249.675781 371.582031 287.019531 418.953125 280.523438 424.050781 C 274.027344 429.148438 266.519531 404.191406 259.128906 407.871094 C 251.734375 411.550781 244.660156 382.296875 236.699219 384.449219 C 228.734375 386.601562 235.265625 378.800781 227.035156 379.378906 C 218.800781 379.957031 213.511719 402.914062 213.511719 402.914062 C 211.175781 404.4375 219.183594 379.945312 211.351562 377.347656 C 203.515625 374.75 192.953125 403.617188 185.78125 399.535156 C 178.609375 395.453125 204.007812 374.996094 197.789062 369.570312 C 191.574219 364.144531 170.011719 376.777344 170.011719 376.777344 C 168.0625 377.464844 191.496094 364.207031 187.792969 356.8125 C 184.085938 349.414062 147.96875 362.652344 145.765625 354.671875 C 143.5625 346.695312 184.421875 349.902344 183.871094 341.648438 C 183.320312 333.398438 155.625 333.167969 156.652344 324.972656 C 157.675781 316.777344 183.21875 333.714844 185.847656 325.871094 C 188.476562 318.027344 174.007812 303.191406 172.355469 300.859375 C 171.847656 299.230469 188.039062 318.261719 193.457031 312.019531 C 198.878906 305.78125 190.199219 296.601562 189.332031 295.71875 C 187.949219 294.308594 198.78125 305.890625 206.175781 302.222656 C 213.570312 298.550781 198.136719 265.847656 206.074219 263.640625 C 214.007812 261.433594 213.269531 298.753906 221.5 298.132812 C 229.730469 297.511719 230.414062 282.746094 230.414062 282.746094 C 232.167969 283.832031 229.355469 297.324219 237.183594 299.910156 C 245.011719 302.492188 261.972656 266.878906 269.148438 270.96875 C 280.449219 275.90625 244.609375 302.539062 250.804688 307.980469 C 257 313.417969 266.28125 293.492188 271.324219 300.035156 C 276.371094 306.578125 257.035156 313.164062 260.746094 320.546875 C 264.457031 327.929688 281.832031 323.507812 282.890625 324.160156 C 284.453125 326.136719 264.351562 327.640625 264.945312 335.890625 C 265.539062 344.144531 305.054688 336.855469 303.984375 345.050781 C 302.914062 353.242188 265.582031 343.65625 262.972656 351.492188 Z M 262.972656 351.496094 " fill-opacity="1" fill-rule="nonzero"/><path fill="rgb(10.978699%, 75.289917%, 84.309387%)" d="M 210.835938 408.546875 L 196.90625 436.113281 C 191.777344 446.265625 204.46875 447.578125 206.726562 433.75 Z M 210.835938 408.546875 " fill-opacity="1" fill-rule="evenodd"/><path fill="rgb(10.978699%, 75.289917%, 84.309387%)" d="M 273.898438 366.394531 L 299.851562 391.875 C 309.410156 401.261719 320.546875 379.542969 304.078125 379.628906 C 292.535156 379.6875 283.554688 372.027344 273.898438 366.394531 Z M 273.898438 366.394531 " fill-opacity="1" fill-rule="evenodd"/><path fill="rgb(10.978699%, 75.289917%, 84.309387%)" d="M 287.332031 323.878906 C 294.523438 322.910156 301.714844 319.832031 308.90625 323.546875 C 315.96875 327.191406 314.613281 313.011719 305.519531 316.632812 Z M 287.332031 323.878906 " fill-opacity="1" fill-rule="evenodd"/><path fill="rgb(10.978699%, 75.289917%, 84.309387%)" d="M 188.308594 294.785156 L 174.734375 259.660156 C 169.738281 246.726562 152.21875 258.738281 165.535156 269.382812 C 182.648438 283.058594 181.117188 286.535156 188.308594 294.785156 Z M 188.308594 294.785156 " fill-opacity="1" fill-rule="evenodd"/><path fill="rgb(10.978699%, 75.289917%, 84.309387%)" d="M 281.671875 293.417969 C 281.671875 293.734375 281.609375 294.039062 281.488281 294.328125 C 281.371094 294.621094 281.199219 294.878906 280.976562 295.101562 C 280.753906 295.328125 280.496094 295.5 280.203125 295.621094 C 279.914062 295.738281 279.609375 295.800781 279.296875 295.800781 C 278.980469 295.800781 278.675781 295.738281 278.386719 295.621094 C 278.097656 295.5 277.839844 295.328125 277.617188 295.101562 C 277.394531 294.878906 277.222656 294.621094 277.101562 294.328125 C 276.980469 294.039062 276.921875 293.734375 276.921875 293.417969 C 276.921875 293.101562 276.980469 292.796875 277.101562 292.507812 C 277.222656 292.214844 277.394531 291.957031 277.617188 291.734375 C 277.839844 291.511719 278.097656 291.339844 278.386719 291.21875 C 278.675781 291.097656 278.980469 291.035156 279.296875 291.035156 C 279.609375 291.035156 279.914062 291.097656 280.203125 291.21875 C 280.496094 291.339844 280.753906 291.511719 280.976562 291.734375 C 281.199219 291.957031 281.371094 292.214844 281.488281 292.507812 C 281.609375 292.796875 281.671875 293.101562 281.671875 293.417969 Z M 281.671875 293.417969 " fill-opacity="1" fill-rule="nonzero"/><path fill="rgb(10.978699%, 75.289917%, 84.309387%)" d="M 115.699219 281.917969 C 113.394531 284.351562 110.734375 288.25 112.09375 291.316406 C 114.8125 297.449219 124.714844 301.269531 130.828125 298.542969 C 133.886719 297.179688 135.28125 292.394531 134.429688 289.148438 C 133.085938 284.015625 127.421875 279.746094 122.183594 279.027344 C 119.839844 278.707031 117.328125 280.199219 115.699219 281.917969 Z M 115.699219 281.917969 " fill-opacity="1" fill-rule="evenodd"/><path fill="rgb(10.978699%, 75.289917%, 84.309387%)" d="M 145.578125 304.53125 C 144.746094 305.410156 143.789062 306.816406 144.277344 307.921875 C 145.257812 310.136719 148.832031 311.515625 151.042969 310.53125 C 152.144531 310.042969 152.648438 308.3125 152.34375 307.140625 C 151.855469 305.289062 149.8125 303.746094 147.921875 303.488281 C 147.074219 303.371094 146.167969 303.910156 145.578125 304.53125 Z M 145.578125 304.53125 " fill-opacity="1" fill-rule="evenodd"/><path fill="rgb(10.978699%, 75.289917%, 84.309387%)" d="M 229.316406 249.59375 C 228.207031 250.765625 226.929688 252.636719 227.582031 254.113281 C 228.890625 257.058594 233.652344 258.898438 236.589844 257.585938 C 238.058594 256.933594 238.730469 254.628906 238.324219 253.070312 C 237.675781 250.601562 234.953125 248.546875 232.433594 248.203125 C 231.308594 248.050781 230.097656 248.765625 229.316406 249.59375 Z M 229.316406 249.59375 " fill-opacity="1" fill-rule="evenodd"/><path fill="rgb(10.978699%, 75.289917%, 84.309387%)" d="M 303.105469 290.648438 C 303.105469 291.171875 302.980469 291.6875 302.734375 292.195312 " fill-opacity="1" fill-rule="nonzero"/><path fill="rgb(10.978699%, 75.289917%, 84.309387%)" d="M 230.710938 268.609375 C 230.222656 269.125 229.660156 269.949219 229.949219 270.601562 C 230.523438 271.902344 232.625 272.710938 233.921875 272.132812 C 234.566406 271.84375 234.863281 270.828125 234.683594 270.140625 C 234.398438 269.054688 233.199219 268.148438 232.085938 267.996094 C 231.589844 267.929688 231.058594 268.246094 230.710938 268.609375 Z M 230.710938 268.609375 " fill-opacity="1" fill-rule="evenodd"/><path fill="rgb(10.978699%, 75.289917%, 84.309387%)" d="M 225.5625 393.480469 C 224.351562 394.757812 222.957031 396.800781 223.671875 398.410156 C 225.09375 401.628906 230.292969 403.632812 233.5 402.203125 C 235.105469 401.488281 235.835938 398.976562 235.390625 397.273438 C 234.683594 394.582031 231.714844 392.339844 228.964844 391.964844 C 227.734375 391.796875 226.414062 392.578125 225.5625 393.480469 Z M 225.5625 393.480469 " fill-opacity="1" fill-rule="evenodd"/><path fill="rgb(10.978699%, 75.289917%, 84.309387%)" d="M 167.375 378.84375 L 140.457031 391.445312 C 130.546875 396.085938 143.921875 410.886719 148.59375 398.214844 C 151.867188 389.332031 160.296875 384.636719 167.375 378.84375 Z M 167.375 378.84375 " fill-opacity="1" fill-rule="evenodd"/><g fill="rgb(100%, 100%, 100%)" fill-opacity="0.902"><g transform="translate(162.033708, 363.66341)"><g><path d="M 30.0625 -0.109375 C 32.371094 0.441406 34.679688 0.328125 36.988281 -0.328125 C 39.296875 -0.988281 41.492188 -2.144531 43.636719 -3.683594 C 45.726562 -5.222656 47.648438 -7.089844 49.515625 -9.289062 C 51.332031 -11.484375 52.925781 -13.90625 54.296875 -16.542969 C 55.617188 -19.125 56.660156 -21.816406 57.429688 -24.566406 C 58.199219 -27.3125 58.640625 -30.0625 58.695312 -32.753906 C 58.695312 -35.394531 58.308594 -37.867188 57.539062 -40.230469 C 56.714844 -42.539062 55.398438 -44.625 53.527344 -46.382812 C 51.660156 -48.144531 49.242188 -49.460938 46.328125 -50.394531 C 43.363281 -51.277344 39.789062 -51.660156 35.503906 -51.496094 L 35.722656 -51.496094 C 33.085938 -51.386719 30.390625 -50.890625 27.753906 -50.011719 C 25.0625 -49.132812 22.644531 -47.921875 20.445312 -46.273438 C 18.246094 -44.625 16.433594 -42.648438 15.003906 -40.339844 C 13.574219 -38.03125 12.859375 -35.449219 12.859375 -32.480469 C 12.859375 -30.554688 13.355469 -29.074219 14.398438 -28.082031 C 15.386719 -27.039062 16.652344 -26.433594 18.136719 -26.324219 C 19.566406 -26.160156 21.050781 -26.488281 22.585938 -27.257812 C 24.125 -28.027344 25.390625 -29.292969 26.433594 -31.050781 C 25.445312 -31.160156 24.675781 -31.324219 24.070312 -31.65625 C 23.410156 -31.929688 22.917969 -32.316406 22.585938 -32.753906 C 22.203125 -33.195312 21.929688 -33.6875 21.816406 -34.238281 C 21.652344 -34.789062 21.597656 -35.394531 21.597656 -36.050781 C 21.597656 -36.601562 21.652344 -37.207031 21.761719 -37.867188 C 21.875 -38.527344 22.039062 -39.128906 22.257812 -39.734375 C 22.476562 -40.339844 22.699219 -40.945312 22.917969 -41.492188 C 23.136719 -42.042969 23.410156 -42.539062 23.632812 -42.976562 C 24.238281 -44.296875 25.171875 -45.449219 26.378906 -46.441406 C 27.589844 -47.429688 28.960938 -48.308594 30.5 -48.96875 C 32.039062 -49.570312 33.632812 -49.957031 35.394531 -50.175781 C 37.152344 -50.394531 38.910156 -50.339844 40.667969 -50.011719 C 43.527344 -49.460938 45.890625 -48.308594 47.648438 -46.605469 C 49.40625 -44.902344 50.671875 -42.867188 51.496094 -40.558594 C 52.265625 -38.195312 52.648438 -35.667969 52.59375 -32.917969 C 52.539062 -30.171875 52.15625 -27.480469 51.441406 -24.839844 C 50.78125 -22.585938 49.902344 -20.5 48.746094 -18.628906 C 47.59375 -16.707031 46.273438 -15.113281 44.734375 -13.792969 C 43.195312 -12.421875 41.492188 -11.429688 39.734375 -10.828125 C 37.976562 -10.167969 36.164062 -10.058594 34.402344 -10.441406 C 33.085938 -10.660156 31.765625 -11.210938 30.445312 -12.089844 C 29.128906 -12.914062 27.917969 -14.125 26.765625 -15.664062 L 27.3125 -16.488281 C 28.082031 -17.640625 28.90625 -18.851562 29.730469 -20.058594 C 30.5 -21.269531 31.324219 -22.53125 32.152344 -23.796875 C 32.917969 -25.007812 33.746094 -26.214844 34.625 -27.367188 C 35.503906 -28.523438 36.382812 -29.675781 37.371094 -30.777344 C 38.800781 -32.425781 40.339844 -33.964844 41.988281 -35.394531 C 43.636719 -36.765625 45.613281 -38.085938 47.867188 -39.40625 C 46.21875 -39.128906 44.625 -38.582031 43.140625 -37.8125 C 41.65625 -37.042969 40.175781 -36.050781 38.636719 -34.953125 C 37.097656 -33.800781 35.558594 -32.535156 34.128906 -31.214844 C 32.699219 -29.898438 31.269531 -28.523438 29.84375 -27.148438 C 28.414062 -25.71875 26.984375 -24.402344 25.554688 -23.191406 C 24.125 -21.984375 22.699219 -20.882812 21.269531 -19.949219 C 19.785156 -18.960938 18.355469 -18.246094 16.925781 -17.804688 C 15.5 -17.3125 14.015625 -17.148438 12.476562 -17.367188 C 11.265625 -17.476562 10.332031 -17.804688 9.671875 -18.355469 C 8.957031 -18.90625 8.410156 -19.566406 8.023438 -20.390625 C 7.253906 -21.929688 7.035156 -23.796875 7.472656 -26.050781 C 6.320312 -25.445312 5.277344 -24.675781 4.339844 -23.6875 C 3.351562 -22.699219 2.527344 -21.542969 1.8125 -20.28125 C 1.042969 -18.960938 0.496094 -17.640625 0.0546875 -16.210938 C -0.382812 -14.785156 -0.605469 -13.410156 -0.714844 -12.035156 C -0.824219 -10.550781 -0.769531 -9.179688 -0.441406 -7.859375 C -0.164062 -6.539062 0.382812 -5.332031 1.210938 -4.285156 C 1.976562 -3.1875 2.96875 -2.363281 4.285156 -1.703125 C 5.605469 -1.042969 7.199219 -0.660156 9.066406 -0.605469 C 10.496094 -0.550781 11.871094 -0.878906 13.300781 -1.539062 C 14.671875 -2.199219 16.046875 -3.078125 17.421875 -4.285156 C 18.742188 -5.441406 20.003906 -6.816406 21.324219 -8.410156 C 22.585938 -9.949219 23.851562 -11.652344 25.117188 -13.410156 C 24.347656 -11.429688 23.960938 -9.671875 23.960938 -8.1875 C 23.90625 -6.648438 24.125 -5.386719 24.675781 -4.285156 C 25.171875 -3.132812 25.886719 -2.199219 26.820312 -1.539062 C 27.699219 -0.824219 28.796875 -0.328125 30.0625 -0.109375 Z M 30.0625 -0.109375 "/></g></g></g><g fill="rgb(100%, 100%, 100%)" fill-opacity="0.902"><g transform="translate(214.461816, 363.66341)"><g><path d="M 17.53125 -0.496094 L 17.3125 -0.328125 C 18.851562 -0.328125 20.390625 -0.769531 21.984375 -1.703125 C 23.523438 -2.582031 25.0625 -3.738281 26.488281 -5.109375 C 27.863281 -6.429688 29.128906 -7.914062 30.335938 -9.453125 C 31.546875 -10.992188 32.535156 -12.476562 33.304688 -13.792969 C 33.195312 -13.683594 33.085938 -13.628906 32.917969 -13.519531 C 32.753906 -13.410156 32.589844 -13.246094 32.371094 -13.078125 C 31.875 -12.640625 31.324219 -12.199219 30.722656 -11.761719 C 30.117188 -11.265625 29.457031 -10.773438 28.742188 -10.277344 C 27.203125 -9.121094 25.941406 -8.296875 24.839844 -7.859375 C 24.292969 -7.585938 23.851562 -7.527344 23.578125 -7.640625 C 23.300781 -7.75 23.246094 -8.078125 23.410156 -8.628906 C 23.523438 -9.179688 24.015625 -10.058594 24.785156 -11.15625 L 36.933594 -28.90625 L 29.183594 -28.90625 L 25.664062 -23.851562 C 25.664062 -24.949219 25.5 -25.832031 25.117188 -26.601562 C 24.730469 -27.3125 24.238281 -27.863281 23.578125 -28.304688 C 22.863281 -28.6875 22.039062 -28.90625 21.160156 -29.019531 C 20.28125 -29.074219 19.289062 -28.960938 18.300781 -28.742188 C 17.53125 -28.523438 16.652344 -28.195312 15.71875 -27.644531 C 14.785156 -27.09375 13.847656 -26.488281 12.859375 -25.71875 C 11.871094 -24.949219 10.828125 -24.070312 9.78125 -23.082031 C 8.738281 -22.09375 7.75 -21.105469 6.761719 -20.003906 C 5.550781 -18.6875 4.453125 -17.367188 3.460938 -15.992188 C 2.417969 -14.5625 1.539062 -13.191406 0.769531 -11.816406 C 0.21875 -10.828125 -0.273438 -9.671875 -0.605469 -8.355469 C -0.933594 -7.035156 -1.097656 -5.824219 -0.988281 -4.671875 C -0.933594 -3.460938 -0.605469 -2.472656 -0.0546875 -1.648438 C 0.496094 -0.824219 1.429688 -0.382812 2.804688 -0.382812 C 4.671875 -0.382812 6.648438 -0.769531 8.628906 -1.648438 C 9.5625 -2.035156 10.441406 -2.527344 11.265625 -3.078125 C 12.089844 -3.628906 12.804688 -4.285156 13.355469 -5 C 13.246094 -3.738281 13.574219 -2.691406 14.34375 -1.8125 C 15.058594 -0.933594 16.101562 -0.496094 17.53125 -0.496094 Z M 8.355469 -7.472656 C 7.859375 -7.75 7.527344 -8.1875 7.363281 -8.847656 C 7.199219 -9.507812 7.308594 -10.332031 7.640625 -11.375 C 7.914062 -12.367188 8.464844 -13.519531 9.34375 -14.949219 C 10.222656 -16.324219 11.429688 -17.917969 12.96875 -19.730469 C 13.628906 -20.5 14.289062 -21.269531 15.058594 -22.039062 C 15.773438 -22.808594 16.542969 -23.46875 17.3125 -24.125 C 18.027344 -24.730469 18.796875 -25.226562 19.621094 -25.554688 C 20.390625 -25.886719 21.214844 -25.996094 22.09375 -25.996094 C 22.585938 -25.941406 22.972656 -25.773438 23.246094 -25.5 C 23.46875 -25.171875 23.632812 -24.785156 23.742188 -24.292969 C 23.796875 -23.796875 23.796875 -23.246094 23.6875 -22.585938 C 23.578125 -21.929688 23.46875 -21.269531 23.246094 -20.554688 L 23.300781 -20.554688 L 17.585938 -12.640625 C 17.148438 -11.980469 16.542969 -11.265625 15.882812 -10.496094 C 15.167969 -9.726562 14.398438 -9.011719 13.574219 -8.410156 C 12.695312 -7.75 11.816406 -7.308594 10.9375 -7.089844 C 10.003906 -6.816406 9.121094 -6.925781 8.355469 -7.472656 Z M 8.355469 -7.472656 "/></g></g></g><g fill="rgb(100%, 100%, 100%)" fill-opacity="0.902"><g transform="translate(242.873958, 363.66341)"><g><path d="M 19.785156 -31.4375 C 20.335938 -31.160156 21.160156 -31.382812 22.148438 -32.09375 C 22.585938 -32.425781 23.082031 -32.863281 23.523438 -33.414062 C 23.960938 -33.964844 24.402344 -34.511719 24.785156 -35.171875 C 25.171875 -35.832031 25.5 -36.4375 25.773438 -37.097656 C 25.996094 -37.757812 26.214844 -38.359375 26.324219 -38.964844 C 26.488281 -40.121094 26.269531 -40.832031 25.71875 -41.109375 C 25.117188 -41.382812 24.347656 -41.164062 23.355469 -40.449219 C 22.367188 -39.679688 21.488281 -38.636719 20.664062 -37.316406 L 20.664062 -37.371094 C 20.222656 -36.710938 19.894531 -36.050781 19.675781 -35.394531 C 19.398438 -34.734375 19.234375 -34.128906 19.179688 -33.632812 C 19.070312 -33.085938 19.070312 -32.589844 19.179688 -32.207031 C 19.289062 -31.820312 19.457031 -31.546875 19.785156 -31.4375 Z M 0.824219 -0.273438 C 1.703125 0.0546875 2.804688 0.109375 4.230469 -0.109375 C 5.660156 -0.328125 7.199219 -0.933594 8.902344 -1.867188 C 10.550781 -2.746094 12.3125 -3.957031 14.070312 -5.550781 C 15.828125 -7.089844 17.585938 -9.066406 19.234375 -11.375 C 18.796875 -10.992188 18.246094 -10.550781 17.53125 -10.003906 C 16.761719 -9.453125 15.992188 -8.957031 15.167969 -8.519531 C 14.289062 -8.023438 13.464844 -7.640625 12.640625 -7.308594 C 11.761719 -6.980469 11.046875 -6.816406 10.496094 -6.871094 C 9.617188 -6.871094 9.121094 -7.199219 9.121094 -7.859375 C 9.121094 -8.464844 9.289062 -9.179688 9.726562 -10.003906 C 10.113281 -10.773438 10.550781 -11.484375 11.101562 -12.253906 C 11.597656 -13.023438 11.980469 -13.519531 12.199219 -13.847656 L 22.753906 -28.742188 L 15.003906 -28.742188 L 1.921875 -10.773438 C 0.824219 -9.234375 0 -7.859375 -0.496094 -6.703125 C -0.988281 -5.496094 -1.265625 -4.507812 -1.265625 -3.683594 C -1.320312 -2.804688 -1.152344 -2.035156 -0.769531 -1.484375 C -0.382812 -0.933594 0.164062 -0.496094 0.824219 -0.273438 Z M 0.824219 -0.273438 "/></g></g></g><g fill="rgb(100%, 100%, 100%)" fill-opacity="0.902"><g transform="translate(257.546993, 363.66341)"><g><path d="M 8.683594 -20.003906 L -4.671875 -0.164062 L 2.914062 -0.164062 L 13.960938 -17.804688 C 14.730469 -19.015625 15.773438 -20.167969 17.035156 -21.324219 C 17.367188 -21.597656 17.804688 -21.984375 18.410156 -22.476562 C 19.015625 -22.917969 19.675781 -23.410156 20.445312 -23.851562 C 21.160156 -24.292969 21.875 -24.621094 22.585938 -24.949219 C 23.300781 -25.28125 23.960938 -25.445312 24.621094 -25.445312 C 25.226562 -25.390625 25.71875 -25.117188 26.050781 -24.675781 C 26.378906 -24.179688 26.542969 -23.410156 26.542969 -22.3125 C 26.542969 -21.761719 26.324219 -21.324219 25.941406 -20.882812 C 25.554688 -20.445312 25.117188 -20.167969 24.566406 -19.949219 C 24.015625 -19.730469 23.410156 -19.566406 22.753906 -19.566406 C 22.09375 -19.566406 21.488281 -19.730469 20.9375 -20.058594 C 20.609375 -19.179688 20.445312 -18.464844 20.445312 -17.917969 C 20.445312 -17.367188 20.609375 -16.871094 20.882812 -16.542969 C 21.105469 -16.15625 21.433594 -15.882812 21.816406 -15.71875 C 22.203125 -15.554688 22.585938 -15.441406 23.027344 -15.441406 C 24.015625 -15.332031 24.894531 -15.5 25.773438 -16.046875 C 26.601562 -16.597656 27.3125 -17.3125 27.972656 -18.246094 C 28.578125 -19.125 29.074219 -20.113281 29.402344 -21.214844 C 29.730469 -22.3125 29.898438 -23.355469 29.898438 -24.402344 C 29.84375 -25.390625 29.621094 -26.324219 29.238281 -27.148438 C 28.796875 -27.972656 28.136719 -28.578125 27.257812 -28.90625 C 26.378906 -29.183594 25.390625 -29.183594 24.402344 -28.90625 C 23.410156 -28.578125 22.421875 -28.195312 21.488281 -27.644531 C 20.5 -27.039062 19.566406 -26.378906 18.6875 -25.71875 C 17.804688 -25.007812 17.09375 -24.402344 16.488281 -23.90625 C 16.761719 -25.171875 16.761719 -26.269531 16.542969 -27.203125 C 16.324219 -28.082031 15.773438 -28.6875 14.949219 -28.960938 C 14.289062 -29.128906 13.464844 -29.074219 12.476562 -28.796875 C 11.484375 -28.523438 10.277344 -27.972656 8.902344 -27.148438 C 9.34375 -26.433594 9.617188 -25.832031 9.835938 -25.28125 C 10.058594 -24.730469 10.113281 -24.179688 10.113281 -23.632812 C 10.058594 -23.082031 9.890625 -22.476562 9.671875 -21.929688 C 9.398438 -21.324219 9.066406 -20.664062 8.683594 -20.003906 Z M 8.847656 -27.203125 L 8.738281 -27.039062 L 8.902344 -27.148438 Z M 8.847656 -27.203125 "/></g></g></g><g fill="rgb(100%, 100%, 100%)" fill-opacity="0.902"><g transform="translate(281.562621, 363.66341)"><g><path d="M -4.890625 24.730469 C -3.460938 24.402344 -1.976562 23.742188 -0.441406 22.644531 C 1.097656 21.542969 2.636719 20.222656 4.175781 18.574219 C 5.714844 16.980469 7.089844 15.386719 8.410156 13.792969 C 9.726562 12.199219 10.882812 10.660156 11.925781 9.234375 C 12.421875 8.574219 12.859375 7.96875 13.246094 7.417969 C 13.628906 6.871094 13.960938 6.429688 14.289062 6.046875 C 15.332031 4.617188 16.433594 3.132812 17.53125 1.59375 C 18.628906 0.0546875 19.730469 -1.484375 20.828125 -3.132812 C 23.027344 -6.320312 25.117188 -9.398438 27.09375 -12.367188 C 29.074219 -15.332031 30.996094 -18.191406 32.753906 -20.828125 C 33.632812 -22.148438 34.457031 -23.355469 35.226562 -24.457031 C 35.996094 -25.554688 36.65625 -26.601562 37.316406 -27.589844 L 29.566406 -27.589844 C 28.6875 -26.378906 27.863281 -25.171875 26.984375 -23.960938 C 26.105469 -22.753906 25.28125 -21.542969 24.457031 -20.390625 C 23.578125 -19.179688 22.753906 -18.027344 21.875 -16.816406 C 20.992188 -15.609375 20.167969 -14.398438 19.34375 -13.191406 L 17.863281 -11.101562 C 17.203125 -10.222656 16.542969 -9.453125 15.828125 -8.738281 C 15.058594 -7.96875 14.234375 -7.363281 13.464844 -6.925781 C 12.640625 -6.429688 11.871094 -6.265625 11.101562 -6.375 C 10.71875 -6.375 10.496094 -6.648438 10.441406 -7.144531 C 10.332031 -7.472656 10.496094 -8.078125 10.9375 -8.957031 C 11.375 -9.835938 12.035156 -10.9375 12.914062 -12.199219 C 13.738281 -13.464844 14.5625 -14.730469 15.441406 -15.992188 C 16.265625 -17.203125 16.980469 -18.355469 17.640625 -19.457031 C 18.300781 -20.554688 18.6875 -21.378906 18.796875 -22.039062 C 18.960938 -23.136719 18.90625 -24.015625 18.6875 -24.785156 C 18.464844 -25.554688 18.082031 -26.160156 17.585938 -26.601562 C 16.980469 -27.09375 16.265625 -27.367188 15.5 -27.480469 C 14.730469 -27.589844 13.90625 -27.480469 13.078125 -27.257812 C 13.464844 -26.820312 13.738281 -26.433594 13.847656 -26.105469 C 13.960938 -25.71875 13.90625 -25.335938 13.792969 -24.949219 C 13.628906 -24.511719 13.355469 -24.015625 13.023438 -23.523438 C 12.640625 -22.972656 12.199219 -22.421875 11.761719 -21.761719 L 11.761719 -21.707031 L 2.089844 -9.011719 C 1.757812 -8.683594 1.484375 -8.242188 1.152344 -7.75 C 0.824219 -7.253906 0.496094 -6.703125 0.21875 -6.15625 C -0.660156 -4.175781 -0.824219 -2.691406 -0.382812 -1.703125 C -0.164062 -1.152344 0.164062 -0.660156 0.605469 -0.328125 C 1.042969 0.0546875 1.539062 0.328125 2.144531 0.496094 C 2.691406 0.714844 3.351562 0.769531 4.066406 0.714844 C 4.726562 0.714844 5.441406 0.550781 6.101562 0.21875 C 7.417969 -0.328125 8.738281 -1.097656 9.949219 -2.035156 C 11.15625 -2.96875 12.253906 -3.957031 13.246094 -5 C 14.125 -5.992188 14.839844 -6.703125 15.386719 -7.144531 L 9.066406 1.429688 C 5.109375 2.417969 1.921875 3.628906 -0.605469 5.109375 C -3.242188 6.648438 -5.222656 8.242188 -6.59375 9.78125 C -8.023438 11.375 -9.011719 12.859375 -9.617188 14.234375 C -10.277344 15.664062 -10.660156 16.980469 -10.773438 18.246094 C -10.882812 19.511719 -10.773438 20.609375 -10.386719 21.597656 C -10.277344 22.148438 -10.003906 22.644531 -9.671875 23.082031 C -9.34375 23.523438 -8.957031 23.90625 -8.519531 24.238281 C -8.078125 24.566406 -7.527344 24.730469 -6.925781 24.839844 C -6.320312 24.949219 -5.660156 24.949219 -4.890625 24.730469 Z M -5.496094 16.652344 C -6.265625 16.433594 -6.703125 15.992188 -6.703125 15.332031 C -6.703125 14.671875 -6.539062 13.960938 -6.101562 13.191406 C -5.714844 12.476562 -5.222656 11.761719 -4.671875 11.046875 C -4.121094 10.332031 -3.574219 9.726562 -3.078125 9.289062 C -1.539062 7.96875 0.164062 6.871094 2.035156 5.992188 C 3.902344 5.109375 5.714844 4.339844 7.527344 3.683594 L 7.585938 3.738281 L 6.210938 5.660156 C 5.878906 6.101562 5.550781 6.59375 5.222656 7.035156 C 4.890625 7.527344 4.507812 8.023438 4.121094 8.519531 C 3.351562 9.5625 2.527344 10.605469 1.648438 11.652344 C 0.769531 12.75 -0.0546875 13.683594 -0.878906 14.453125 C -1.757812 15.277344 -2.636719 15.882812 -3.40625 16.324219 C -4.175781 16.761719 -4.890625 16.871094 -5.496094 16.652344 Z M -5.496094 16.652344 "/></g></g></g><g fill="rgb(0%, 0%, 0%)" fill-opacity="1"><g transform="translate(160.333457, 361.963162)"><g><path d="M 30.0625 -0.109375 C 32.371094 0.441406 34.679688 0.328125 36.988281 -0.328125 C 39.296875 -0.988281 41.492188 -2.144531 43.636719 -3.683594 C 45.726562 -5.222656 47.648438 -7.089844 49.515625 -9.289062 C 51.332031 -11.484375 52.925781 -13.90625 54.296875 -16.542969 C 55.617188 -19.125 56.660156 -21.816406 57.429688 -24.566406 C 58.199219 -27.3125 58.640625 -30.0625 58.695312 -32.753906 C 58.695312 -35.394531 58.308594 -37.867188 57.539062 -40.230469 C 56.714844 -42.539062 55.398438 -44.625 53.527344 -46.382812 C 51.660156 -48.144531 49.242188 -49.460938 46.328125 -50.394531 C 43.363281 -51.277344 39.789062 -51.660156 35.503906 -51.496094 L 35.722656 -51.496094 C 33.085938 -51.386719 30.390625 -50.890625 27.753906 -50.011719 C 25.0625 -49.132812 22.644531 -47.921875 20.445312 -46.273438 C 18.246094 -44.625 16.433594 -42.648438 15.003906 -40.339844 C 13.574219 -38.03125 12.859375 -35.449219 12.859375 -32.480469 C 12.859375 -30.554688 13.355469 -29.074219 14.398438 -28.082031 C 15.386719 -27.039062 16.652344 -26.433594 18.136719 -26.324219 C 19.566406 -26.160156 21.050781 -26.488281 22.585938 -27.257812 C 24.125 -28.027344 25.390625 -29.292969 26.433594 -31.050781 C 25.445312 -31.160156 24.675781 -31.324219 24.070312 -31.65625 C 23.410156 -31.929688 22.917969 -32.316406 22.585938 -32.753906 C 22.203125 -33.195312 21.929688 -33.6875 21.816406 -34.238281 C 21.652344 -34.789062 21.597656 -35.394531 21.597656 -36.050781 C 21.597656 -36.601562 21.652344 -37.207031 21.761719 -37.867188 C 21.875 -38.527344 22.039062 -39.128906 22.257812 -39.734375 C 22.476562 -40.339844 22.699219 -40.945312 22.917969 -41.492188 C 23.136719 -42.042969 23.410156 -42.539062 23.632812 -42.976562 C 24.238281 -44.296875 25.171875 -45.449219 26.378906 -46.441406 C 27.589844 -47.429688 28.960938 -48.308594 30.5 -48.96875 C 32.039062 -49.570312 33.632812 -49.957031 35.394531 -50.175781 C 37.152344 -50.394531 38.910156 -50.339844 40.667969 -50.011719 C 43.527344 -49.460938 45.890625 -48.308594 47.648438 -46.605469 C 49.40625 -44.902344 50.671875 -42.867188 51.496094 -40.558594 C 52.265625 -38.195312 52.648438 -35.667969 52.59375 -32.917969 C 52.539062 -30.171875 52.15625 -27.480469 51.441406 -24.839844 C 50.78125 -22.585938 49.902344 -20.5 48.746094 -18.628906 C 47.59375 -16.707031 46.273438 -15.113281 44.734375 -13.792969 C 43.195312 -12.421875 41.492188 -11.429688 39.734375 -10.828125 C 37.976562 -10.167969 36.164062 -10.058594 34.402344 -10.441406 C 33.085938 -10.660156 31.765625 -11.210938 30.445312 -12.089844 C 29.128906 -12.914062 27.917969 -14.125 26.765625 -15.664062 L 27.3125 -16.488281 C 28.082031 -17.640625 28.90625 -18.851562 29.730469 -20.058594 C 30.5 -21.269531 31.324219 -22.53125 32.152344 -23.796875 C 32.917969 -25.007812 33.746094 -26.214844 34.625 -27.367188 C 35.503906 -28.523438 36.382812 -29.675781 37.371094 -30.777344 C 38.800781 -32.425781 40.339844 -33.964844 41.988281 -35.394531 C 43.636719 -36.765625 45.613281 -38.085938 47.867188 -39.40625 C 46.21875 -39.128906 44.625 -38.582031 43.140625 -37.8125 C 41.65625 -37.042969 40.175781 -36.050781 38.636719 -34.953125 C 37.097656 -33.800781 35.558594 -32.535156 34.128906 -31.214844 C 32.699219 -29.898438 31.269531 -28.523438 29.84375 -27.148438 C 28.414062 -25.71875 26.984375 -24.402344 25.554688 -23.191406 C 24.125 -21.984375 22.699219 -20.882812 21.269531 -19.949219 C 19.785156 -18.960938 18.355469 -18.246094 16.925781 -17.804688 C 15.5 -17.3125 14.015625 -17.148438 12.476562 -17.367188 C 11.265625 -17.476562 10.332031 -17.804688 9.671875 -18.355469 C 8.957031 -18.90625 8.410156 -19.566406 8.023438 -20.390625 C 7.253906 -21.929688 7.035156 -23.796875 7.472656 -26.050781 C 6.320312 -25.445312 5.277344 -24.675781 4.339844 -23.6875 C 3.351562 -22.699219 2.527344 -21.542969 1.8125 -20.28125 C 1.042969 -18.960938 0.496094 -17.640625 0.0546875 -16.210938 C -0.382812 -14.785156 -0.605469 -13.410156 -0.714844 -12.035156 C -0.824219 -10.550781 -0.769531 -9.179688 -0.441406 -7.859375 C -0.164062 -6.539062 0.382812 -5.332031 1.210938 -4.285156 C 1.976562 -3.1875 2.96875 -2.363281 4.285156 -1.703125 C 5.605469 -1.042969 7.199219 -0.660156 9.066406 -0.605469 C 10.496094 -0.550781 11.871094 -0.878906 13.300781 -1.539062 C 14.671875 -2.199219 16.046875 -3.078125 17.421875 -4.285156 C 18.742188 -5.441406 20.003906 -6.816406 21.324219 -8.410156 C 22.585938 -9.949219 23.851562 -11.652344 25.117188 -13.410156 C 24.347656 -11.429688 23.960938 -9.671875 23.960938 -8.1875 C 23.90625 -6.648438 24.125 -5.386719 24.675781 -4.285156 C 25.171875 -3.132812 25.886719 -2.199219 26.820312 -1.539062 C 27.699219 -0.824219 28.796875 -0.328125 30.0625 -0.109375 Z M 30.0625 -0.109375 "/></g></g></g><g fill="rgb(0%, 0%, 0%)" fill-opacity="1"><g transform="translate(212.761565, 361.963162)"><g><path d="M 17.53125 -0.496094 L 17.3125 -0.328125 C 18.851562 -0.328125 20.390625 -0.769531 21.984375 -1.703125 C 23.523438 -2.582031 25.0625 -3.738281 26.488281 -5.109375 C 27.863281 -6.429688 29.128906 -7.914062 30.335938 -9.453125 C 31.546875 -10.992188 32.535156 -12.476562 33.304688 -13.792969 C 33.195312 -13.683594 33.085938 -13.628906 32.917969 -13.519531 C 32.753906 -13.410156 32.589844 -13.246094 32.371094 -13.078125 C 31.875 -12.640625 31.324219 -12.199219 30.722656 -11.761719 C 30.117188 -11.265625 29.457031 -10.773438 28.742188 -10.277344 C 27.203125 -9.121094 25.941406 -8.296875 24.839844 -7.859375 C 24.292969 -7.585938 23.851562 -7.527344 23.578125 -7.640625 C 23.300781 -7.75 23.246094 -8.078125 23.410156 -8.628906 C 23.523438 -9.179688 24.015625 -10.058594 24.785156 -11.15625 L 36.933594 -28.90625 L 29.183594 -28.90625 L 25.664062 -23.851562 C 25.664062 -24.949219 25.5 -25.832031 25.117188 -26.601562 C 24.730469 -27.3125 24.238281 -27.863281 23.578125 -28.304688 C 22.863281 -28.6875 22.039062 -28.90625 21.160156 -29.019531 C 20.28125 -29.074219 19.289062 -28.960938 18.300781 -28.742188 C 17.53125 -28.523438 16.652344 -28.195312 15.71875 -27.644531 C 14.785156 -27.09375 13.847656 -26.488281 12.859375 -25.71875 C 11.871094 -24.949219 10.828125 -24.070312 9.78125 -23.082031 C 8.738281 -22.09375 7.75 -21.105469 6.761719 -20.003906 C 5.550781 -18.6875 4.453125 -17.367188 3.460938 -15.992188 C 2.417969 -14.5625 1.539062 -13.191406 0.769531 -11.816406 C 0.21875 -10.828125 -0.273438 -9.671875 -0.605469 -8.355469 C -0.933594 -7.035156 -1.097656 -5.824219 -0.988281 -4.671875 C -0.933594 -3.460938 -0.605469 -2.472656 -0.0546875 -1.648438 C 0.496094 -0.824219 1.429688 -0.382812 2.804688 -0.382812 C 4.671875 -0.382812 6.648438 -0.769531 8.628906 -1.648438 C 9.5625 -2.035156 10.441406 -2.527344 11.265625 -3.078125 C 12.089844 -3.628906 12.804688 -4.285156 13.355469 -5 C 13.246094 -3.738281 13.574219 -2.691406 14.34375 -1.8125 C 15.058594 -0.933594 16.101562 -0.496094 17.53125 -0.496094 Z M 8.355469 -7.472656 C 7.859375 -7.75 7.527344 -8.1875 7.363281 -8.847656 C 7.199219 -9.507812 7.308594 -10.332031 7.640625 -11.375 C 7.914062 -12.367188 8.464844 -13.519531 9.34375 -14.949219 C 10.222656 -16.324219 11.429688 -17.917969 12.96875 -19.730469 C 13.628906 -20.5 14.289062 -21.269531 15.058594 -22.039062 C 15.773438 -22.808594 16.542969 -23.46875 17.3125 -24.125 C 18.027344 -24.730469 18.796875 -25.226562 19.621094 -25.554688 C 20.390625 -25.886719 21.214844 -25.996094 22.09375 -25.996094 C 22.585938 -25.941406 22.972656 -25.773438 23.246094 -25.5 C 23.46875 -25.171875 23.632812 -24.785156 23.742188 -24.292969 C 23.796875 -23.796875 23.796875 -23.246094 23.6875 -22.585938 C 23.578125 -21.929688 23.46875 -21.269531 23.246094 -20.554688 L 23.300781 -20.554688 L 17.585938 -12.640625 C 17.148438 -11.980469 16.542969 -11.265625 15.882812 -10.496094 C 15.167969 -9.726562 14.398438 -9.011719 13.574219 -8.410156 C 12.695312 -7.75 11.816406 -7.308594 10.9375 -7.089844 C 10.003906 -6.816406 9.121094 -6.925781 8.355469 -7.472656 Z M 8.355469 -7.472656 "/></g></g></g><g fill="rgb(0%, 0%, 0%)" fill-opacity="1"><g transform="translate(241.173707, 361.963162)"><g><path d="M 19.785156 -31.4375 C 20.335938 -31.160156 21.160156 -31.382812 22.148438 -32.09375 C 22.585938 -32.425781 23.082031 -32.863281 23.523438 -33.414062 C 23.960938 -33.964844 24.402344 -34.511719 24.785156 -35.171875 C 25.171875 -35.832031 25.5 -36.4375 25.773438 -37.097656 C 25.996094 -37.757812 26.214844 -38.359375 26.324219 -38.964844 C 26.488281 -40.121094 26.269531 -40.832031 25.71875 -41.109375 C 25.117188 -41.382812 24.347656 -41.164062 23.355469 -40.449219 C 22.367188 -39.679688 21.488281 -38.636719 20.664062 -37.316406 L 20.664062 -37.371094 C 20.222656 -36.710938 19.894531 -36.050781 19.675781 -35.394531 C 19.398438 -34.734375 19.234375 -34.128906 19.179688 -33.632812 C 19.070312 -33.085938 19.070312 -32.589844 19.179688 -32.207031 C 19.289062 -31.820312 19.457031 -31.546875 19.785156 -31.4375 Z M 0.824219 -0.273438 C 1.703125 0.0546875 2.804688 0.109375 4.230469 -0.109375 C 5.660156 -0.328125 7.199219 -0.933594 8.902344 -1.867188 C 10.550781 -2.746094 12.3125 -3.957031 14.070312 -5.550781 C 15.828125 -7.089844 17.585938 -9.066406 19.234375 -11.375 C 18.796875 -10.992188 18.246094 -10.550781 17.53125 -10.003906 C 16.761719 -9.453125 15.992188 -8.957031 15.167969 -8.519531 C 14.289062 -8.023438 13.464844 -7.640625 12.640625 -7.308594 C 11.761719 -6.980469 11.046875 -6.816406 10.496094 -6.871094 C 9.617188 -6.871094 9.121094 -7.199219 9.121094 -7.859375 C 9.121094 -8.464844 9.289062 -9.179688 9.726562 -10.003906 C 10.113281 -10.773438 10.550781 -11.484375 11.101562 -12.253906 C 11.597656 -13.023438 11.980469 -13.519531 12.199219 -13.847656 L 22.753906 -28.742188 L 15.003906 -28.742188 L 1.921875 -10.773438 C 0.824219 -9.234375 0 -7.859375 -0.496094 -6.703125 C -0.988281 -5.496094 -1.265625 -4.507812 -1.265625 -3.683594 C -1.320312 -2.804688 -1.152344 -2.035156 -0.769531 -1.484375 C -0.382812 -0.933594 0.164062 -0.496094 0.824219 -0.273438 Z M 0.824219 -0.273438 "/></g></g></g><g fill="rgb(0%, 0%, 0%)" fill-opacity="1"><g transform="translate(255.846742, 361.963162)"><g><path d="M 8.683594 -20.003906 L -4.671875 -0.164062 L 2.914062 -0.164062 L 13.960938 -17.804688 C 14.730469 -19.015625 15.773438 -20.167969 17.035156 -21.324219 C 17.367188 -21.597656 17.804688 -21.984375 18.410156 -22.476562 C 19.015625 -22.917969 19.675781 -23.410156 20.445312 -23.851562 C 21.160156 -24.292969 21.875 -24.621094 22.585938 -24.949219 C 23.300781 -25.28125 23.960938 -25.445312 24.621094 -25.445312 C 25.226562 -25.390625 25.71875 -25.117188 26.050781 -24.675781 C 26.378906 -24.179688 26.542969 -23.410156 26.542969 -22.3125 C 26.542969 -21.761719 26.324219 -21.324219 25.941406 -20.882812 C 25.554688 -20.445312 25.117188 -20.167969 24.566406 -19.949219 C 24.015625 -19.730469 23.410156 -19.566406 22.753906 -19.566406 C 22.09375 -19.566406 21.488281 -19.730469 20.9375 -20.058594 C 20.609375 -19.179688 20.445312 -18.464844 20.445312 -17.917969 C 20.445312 -17.367188 20.609375 -16.871094 20.882812 -16.542969 C 21.105469 -16.15625 21.433594 -15.882812 21.816406 -15.71875 C 22.203125 -15.554688 22.585938 -15.441406 23.027344 -15.441406 C 24.015625 -15.332031 24.894531 -15.5 25.773438 -16.046875 C 26.601562 -16.597656 27.3125 -17.3125 27.972656 -18.246094 C 28.578125 -19.125 29.074219 -20.113281 29.402344 -21.214844 C 29.730469 -22.3125 29.898438 -23.355469 29.898438 -24.402344 C 29.84375 -25.390625 29.621094 -26.324219 29.238281 -27.148438 C 28.796875 -27.972656 28.136719 -28.578125 27.257812 -28.90625 C 26.378906 -29.183594 25.390625 -29.183594 24.402344 -28.90625 C 23.410156 -28.578125 22.421875 -28.195312 21.488281 -27.644531 C 20.5 -27.039062 19.566406 -26.378906 18.6875 -25.71875 C 17.804688 -25.007812 17.09375 -24.402344 16.488281 -23.90625 C 16.761719 -25.171875 16.761719 -26.269531 16.542969 -27.203125 C 16.324219 -28.082031 15.773438 -28.6875 14.949219 -28.960938 C 14.289062 -29.128906 13.464844 -29.074219 12.476562 -28.796875 C 11.484375 -28.523438 10.277344 -27.972656 8.902344 -27.148438 C 9.34375 -26.433594 9.617188 -25.832031 9.835938 -25.28125 C 10.058594 -24.730469 10.113281 -24.179688 10.113281 -23.632812 C 10.058594 -23.082031 9.890625 -22.476562 9.671875 -21.929688 C 9.398438 -21.324219 9.066406 -20.664062 8.683594 -20.003906 Z M 8.847656 -27.203125 L 8.738281 -27.039062 L 8.902344 -27.148438 Z M 8.847656 -27.203125 "/></g></g></g><g fill="rgb(0%, 0%, 0%)" fill-opacity="1"><g transform="translate(279.86237, 361.963162)"><g><path d="M -4.890625 24.730469 C -3.460938 24.402344 -1.976562 23.742188 -0.441406 22.644531 C 1.097656 21.542969 2.636719 20.222656 4.175781 18.574219 C 5.714844 16.980469 7.089844 15.386719 8.410156 13.792969 C 9.726562 12.199219 10.882812 10.660156 11.925781 9.234375 C 12.421875 8.574219 12.859375 7.96875 13.246094 7.417969 C 13.628906 6.871094 13.960938 6.429688 14.289062 6.046875 C 15.332031 4.617188 16.433594 3.132812 17.53125 1.59375 C 18.628906 0.0546875 19.730469 -1.484375 20.828125 -3.132812 C 23.027344 -6.320312 25.117188 -9.398438 27.09375 -12.367188 C 29.074219 -15.332031 30.996094 -18.191406 32.753906 -20.828125 C 33.632812 -22.148438 34.457031 -23.355469 35.226562 -24.457031 C 35.996094 -25.554688 36.65625 -26.601562 37.316406 -27.589844 L 29.566406 -27.589844 C 28.6875 -26.378906 27.863281 -25.171875 26.984375 -23.960938 C 26.105469 -22.753906 25.28125 -21.542969 24.457031 -20.390625 C 23.578125 -19.179688 22.753906 -18.027344 21.875 -16.816406 C 20.992188 -15.609375 20.167969 -14.398438 19.34375 -13.191406 L 17.863281 -11.101562 C 17.203125 -10.222656 16.542969 -9.453125 15.828125 -8.738281 C 15.058594 -7.96875 14.234375 -7.363281 13.464844 -6.925781 C 12.640625 -6.429688 11.871094 -6.265625 11.101562 -6.375 C 10.71875 -6.375 10.496094 -6.648438 10.441406 -7.144531 C 10.332031 -7.472656 10.496094 -8.078125 10.9375 -8.957031 C 11.375 -9.835938 12.035156 -10.9375 12.914062 -12.199219 C 13.738281 -13.464844 14.5625 -14.730469 15.441406 -15.992188 C 16.265625 -17.203125 16.980469 -18.355469 17.640625 -19.457031 C 18.300781 -20.554688 18.6875 -21.378906 18.796875 -22.039062 C 18.960938 -23.136719 18.90625 -24.015625 18.6875 -24.785156 C 18.464844 -25.554688 18.082031 -26.160156 17.585938 -26.601562 C 16.980469 -27.09375 16.265625 -27.367188 15.5 -27.480469 C 14.730469 -27.589844 13.90625 -27.480469 13.078125 -27.257812 C 13.464844 -26.820312 13.738281 -26.433594 13.847656 -26.105469 C 13.960938 -25.71875 13.90625 -25.335938 13.792969 -24.949219 C 13.628906 -24.511719 13.355469 -24.015625 13.023438 -23.523438 C 12.640625 -22.972656 12.199219 -22.421875 11.761719 -21.761719 L 11.761719 -21.707031 L 2.089844 -9.011719 C 1.757812 -8.683594 1.484375 -8.242188 1.152344 -7.75 C 0.824219 -7.253906 0.496094 -6.703125 0.21875 -6.15625 C -0.660156 -4.175781 -0.824219 -2.691406 -0.382812 -1.703125 C -0.164062 -1.152344 0.164062 -0.660156 0.605469 -0.328125 C 1.042969 0.0546875 1.539062 0.328125 2.144531 0.496094 C 2.691406 0.714844 3.351562 0.769531 4.066406 0.714844 C 4.726562 0.714844 5.441406 0.550781 6.101562 0.21875 C 7.417969 -0.328125 8.738281 -1.097656 9.949219 -2.035156 C 11.15625 -2.96875 12.253906 -3.957031 13.246094 -5 C 14.125 -5.992188 14.839844 -6.703125 15.386719 -7.144531 L 9.066406 1.429688 C 5.109375 2.417969 1.921875 3.628906 -0.605469 5.109375 C -3.242188 6.648438 -5.222656 8.242188 -6.59375 9.78125 C -8.023438 11.375 -9.011719 12.859375 -9.617188 14.234375 C -10.277344 15.664062 -10.660156 16.980469 -10.773438 18.246094 C -10.882812 19.511719 -10.773438 20.609375 -10.386719 21.597656 C -10.277344 22.148438 -10.003906 22.644531 -9.671875 23.082031 C -9.34375 23.523438 -8.957031 23.90625 -8.519531 24.238281 C -8.078125 24.566406 -7.527344 24.730469 -6.925781 24.839844 C -6.320312 24.949219 -5.660156 24.949219 -4.890625 24.730469 Z M -5.496094 16.652344 C -6.265625 16.433594 -6.703125 15.992188 -6.703125 15.332031 C -6.703125 14.671875 -6.539062 13.960938 -6.101562 13.191406 C -5.714844 12.476562 -5.222656 11.761719 -4.671875 11.046875 C -4.121094 10.332031 -3.574219 9.726562 -3.078125 9.289062 C -1.539062 7.96875 0.164062 6.871094 2.035156 5.992188 C 3.902344 5.109375 5.714844 4.339844 7.527344 3.683594 L 7.585938 3.738281 L 6.210938 5.660156 C 5.878906 6.101562 5.550781 6.59375 5.222656 7.035156 C 4.890625 7.527344 4.507812 8.023438 4.121094 8.519531 C 3.351562 9.5625 2.527344 10.605469 1.648438 11.652344 C 0.769531 12.75 -0.0546875 13.683594 -0.878906 14.453125 C -1.757812 15.277344 -2.636719 15.882812 -3.40625 16.324219 C -4.175781 16.761719 -4.890625 16.871094 -5.496094 16.652344 Z M -5.496094 16.652344 "/></g></g></g><g fill="rgb(0%, 0%, 0%)" fill-opacity="0.902"><g transform="translate(9.583832, 356.013089)"><g><path d="M 32.054688 1.519531 C 34.214844 0.800781 34.613281 -0.320312 33.332031 -2.078125 C 31.496094 -4.476562 30.457031 -9.753906 30.136719 -18.625 C 29.816406 -26.539062 30.695312 -39.410156 31.894531 -47.800781 C 32.214844 -50.28125 32.773438 -52.359375 32.453125 -54.757812 C 32.292969 -55.875 30.136719 -57.074219 28.296875 -57.074219 L 28.378906 -57.074219 C 25.578125 -57.234375 24.300781 -56.515625 22.621094 -53.71875 C 17.1875 -44.445312 11.589844 -32.933594 7.355469 -23.339844 C 7.273438 -23.183594 7.273438 -23.023438 7.195312 -22.863281 L 7.113281 -22.863281 C 5.195312 -23.023438 3.277344 -22.863281 1.519531 -22.542969 L 1.359375 -22.542969 C 1.039062 -22.382812 -0.398438 -22.222656 -0.71875 -21.421875 C -1.039062 -20.625 -0.71875 -20.304688 0.640625 -19.503906 L 0.71875 -19.503906 C 1.757812 -18.945312 3.515625 -18.625 4.957031 -18.785156 L 5.035156 -18.785156 C 4.875 -18.625 4.714844 -18.386719 4.636719 -18.144531 C 2.878906 -14.628906 1.277344 -11.351562 -0.160156 -8.152344 C -1.199219 -5.835938 -2.078125 -3.597656 -3.117188 -1.757812 C -3.996094 -0.238281 -3.597656 0.558594 -1.597656 1.199219 C -0.078125 1.679688 2.316406 1.039062 2.878906 -0.078125 C 5.914062 -6.476562 8.632812 -12.152344 11.269531 -17.984375 C 11.671875 -18.945312 11.589844 -18.945312 12.152344 -18.945312 C 15.90625 -18.945312 19.503906 -19.425781 23.183594 -19.34375 C 23.902344 -19.34375 23.902344 -19.265625 23.980469 -16.945312 C 24.382812 -8.394531 25.5 -3.277344 27.816406 0 C 28.617188 1.117188 30.777344 1.917969 32.054688 1.519531 Z M 13.667969 -23.183594 C 13.667969 -23.261719 13.75 -23.421875 13.828125 -23.660156 C 17.1875 -30.457031 19.984375 -36.371094 22.300781 -41.40625 C 23.339844 -43.644531 24.539062 -45.722656 25.5 -47.082031 C 24.0625 -39.890625 23.980469 -31.894531 23.660156 -26.140625 C 23.660156 -26.140625 23.421875 -23.660156 23.5 -23.660156 C 20.304688 -23.660156 16.707031 -23.261719 13.667969 -23.183594 Z M 13.667969 -23.183594 "/></g></g></g><g fill="rgb(0%, 0%, 0%)" fill-opacity="0.902"><g transform="translate(51.229795, 356.013089)"><g><path d="M 25.421875 -27.976562 C 25.261719 -31.574219 23.820312 -33.574219 20.625 -35.011719 C 17.984375 -36.210938 14.949219 -35.570312 12.390625 -33.414062 C 10.152344 -31.414062 9.273438 -29.335938 7.753906 -27.339844 C 8.234375 -29.976562 8.632812 -31.015625 8.714844 -33.253906 C 8.792969 -35.011719 7.832031 -35.972656 5.835938 -36.210938 L 5.914062 -36.210938 C 4.078125 -36.53125 3.355469 -35.890625 2.957031 -34.132812 C 0.71875 -22.863281 -1.359375 -11.671875 -3.515625 -0.71875 C -4.636719 4.957031 -5.277344 10.710938 -5.996094 16.386719 C -6.15625 18.144531 -5.035156 19.183594 -2.878906 19.585938 C -1.277344 19.90625 0.160156 19.183594 0.398438 17.746094 C 1.597656 10.3125 2.796875 2.878906 3.996094 -4.476562 L 4.796875 -3.199219 C 5.035156 -2.878906 5.4375 -2.398438 5.996094 -2 C 10.472656 0.960938 16.628906 0.238281 19.183594 -3.835938 C 19.90625 -4.957031 20.703125 -6.074219 21.023438 -6.792969 C 24.621094 -13.429688 25.980469 -20.304688 25.421875 -27.976562 Z M 13.988281 -6.636719 C 11.992188 -3.917969 9.992188 -3.757812 7.59375 -5.355469 C 7.113281 -5.835938 5.675781 -7.113281 4.316406 -6.554688 C 4.476562 -7.433594 4.554688 -8.3125 4.714844 -9.191406 C 5.4375 -14.628906 6.953125 -18.785156 9.113281 -21.742188 C 12.152344 -25.820312 15.027344 -28.855469 17.824219 -31.09375 C 19.105469 -32.136719 18.464844 -32.375 19.183594 -30.375 C 19.585938 -29.015625 19.425781 -27.257812 19.503906 -26.058594 C 19.34375 -18.867188 17.105469 -10.953125 13.988281 -6.636719 Z M 13.988281 -6.636719 "/></g></g></g><g fill="rgb(0%, 0%, 0%)" fill-opacity="0.902"><g transform="translate(81.604977, 356.013089)"><g><path d="M 35.492188 -12.871094 C 33.414062 -13.269531 33.015625 -11.589844 32.855469 -11.429688 L 32.855469 -11.351562 C 30.617188 -8.234375 29.335938 -5.675781 25.980469 -3.996094 C 24.621094 -3.355469 24.0625 -3.597656 23.660156 -4.957031 C 23.183594 -6.636719 23.261719 -8.714844 23.902344 -11.832031 C 25.101562 -17.425781 26.460938 -22.78125 27.578125 -28.136719 C 28.058594 -30.535156 27.257812 -32.535156 25.019531 -34.773438 C 23.339844 -36.292969 20.464844 -36.691406 17.984375 -35.652344 C 15.109375 -34.453125 12.710938 -32.773438 10.152344 -30.136719 C 9.191406 -29.097656 8.394531 -28.136719 7.753906 -27.179688 L 8.554688 -31.65625 C 9.03125 -33.734375 8.472656 -34.613281 6.316406 -35.171875 L 6.234375 -35.171875 C 4.238281 -35.570312 3.039062 -34.613281 2.636719 -32.535156 C 1.679688 -27.417969 0.640625 -22.222656 -0.238281 -17.265625 L -2.71875 -4.398438 C -2.957031 -2.558594 -2.078125 -1.359375 0 -0.71875 L 0.078125 -0.71875 C 2.796875 -0.078125 3.199219 -2.238281 3.4375 -3.117188 C 5.996094 -10.871094 8.234375 -18.386719 12.949219 -24.539062 C 15.347656 -27.738281 17.507812 -30.375 20.625 -31.574219 C 21.742188 -32.136719 21.984375 -31.976562 21.582031 -29.976562 C 21.261719 -28.296875 20.863281 -26.9375 20.625 -25.578125 C 19.585938 -20.0625 17.746094 -14.789062 17.265625 -9.433594 C 17.105469 -7.433594 17.265625 -5.914062 17.984375 -4.078125 C 19.183594 -0.640625 24.78125 1.679688 28.21875 0.238281 C 31.894531 -1.4375 34.613281 -3.675781 36.132812 -6.476562 C 37.011719 -7.992188 37.410156 -9.113281 37.570312 -10.472656 C 37.730469 -11.671875 36.929688 -12.628906 35.492188 -12.871094 Z M 35.492188 -12.871094 "/></g></g></g><g fill="rgb(0%, 0%, 0%)" fill-opacity="0.902"><g transform="translate(115.976889, 356.013089)"><g><path d="M 5.914062 0.71875 C 9.433594 1.839844 12.871094 0.558594 15.507812 -2.878906 L 15.429688 -2.878906 L 16.148438 -3.675781 C 18.144531 0.800781 24.78125 1.597656 28.777344 -2.316406 C 31.015625 -4.398438 33.015625 -7.113281 34.453125 -9.914062 C 35.09375 -11.191406 35.011719 -11.910156 33.972656 -13.347656 L 33.894531 -13.347656 C 33.015625 -14.390625 31.414062 -13.910156 30.214844 -11.832031 C 28.777344 -9.351562 28.058594 -8.632812 26.699219 -7.035156 C 25.578125 -5.59375 23.261719 -3.757812 21.902344 -4.316406 C 21.023438 -4.636719 20.863281 -6.476562 20.785156 -7.992188 C 20.625 -11.992188 22.542969 -16.628906 23.101562 -19.585938 C 23.5 -21.824219 23.023438 -22.621094 20.785156 -23.183594 C 18.707031 -23.742188 17.585938 -22.941406 16.945312 -20.785156 C 15.507812 -15.988281 13.988281 -10.792969 10.871094 -6.316406 C 9.671875 -4.714844 9.03125 -3.757812 7.992188 -3.355469 C 7.195312 -2.957031 7.433594 -2.957031 6.554688 -4.078125 C 5.277344 -5.59375 5.515625 -8.3125 5.277344 -11.03125 C 5.59375 -17.824219 7.515625 -23.820312 11.03125 -28.777344 C 14.390625 -33.332031 15.828125 -33.734375 17.984375 -31.015625 C 18.785156 -30.136719 18.546875 -29.015625 18.625 -28.058594 C 18.707031 -26.699219 20.222656 -25.660156 21.902344 -25.820312 C 23.5 -25.980469 24.222656 -26.859375 24.222656 -28.539062 C 24.0625 -31.976562 20.703125 -35.570312 16.546875 -36.53125 L 16.628906 -36.53125 C 14.390625 -37.171875 11.910156 -36.691406 10.070312 -35.253906 C 6.636719 -32.535156 4.398438 -29.65625 2.558594 -25.578125 C -0.078125 -19.585938 -1.917969 -14.308594 -0.960938 -7.753906 C -0.238281 -3.355469 1.917969 -0.640625 5.914062 0.71875 Z M 5.914062 0.71875 "/></g></g></g><g fill="rgb(10.978699%, 75.289917%, 84.309387%)" fill-opacity="1"><g transform="translate(7.040071, 353.469315)"><g><path d="M 32.054688 1.519531 C 34.214844 0.800781 34.613281 -0.320312 33.332031 -2.078125 C 31.496094 -4.476562 30.457031 -9.753906 30.136719 -18.625 C 29.816406 -26.539062 30.695312 -39.410156 31.894531 -47.800781 C 32.214844 -50.28125 32.773438 -52.359375 32.453125 -54.757812 C 32.292969 -55.875 30.136719 -57.074219 28.296875 -57.074219 L 28.378906 -57.074219 C 25.578125 -57.234375 24.300781 -56.515625 22.621094 -53.71875 C 17.1875 -44.445312 11.589844 -32.933594 7.355469 -23.339844 C 7.273438 -23.183594 7.273438 -23.023438 7.195312 -22.863281 L 7.113281 -22.863281 C 5.195312 -23.023438 3.277344 -22.863281 1.519531 -22.542969 L 1.359375 -22.542969 C 1.039062 -22.382812 -0.398438 -22.222656 -0.71875 -21.421875 C -1.039062 -20.625 -0.71875 -20.304688 0.640625 -19.503906 L 0.71875 -19.503906 C 1.757812 -18.945312 3.515625 -18.625 4.957031 -18.785156 L 5.035156 -18.785156 C 4.875 -18.625 4.714844 -18.386719 4.636719 -18.144531 C 2.878906 -14.628906 1.277344 -11.351562 -0.160156 -8.152344 C -1.199219 -5.835938 -2.078125 -3.597656 -3.117188 -1.757812 C -3.996094 -0.238281 -3.597656 0.558594 -1.597656 1.199219 C -0.078125 1.679688 2.316406 1.039062 2.878906 -0.078125 C 5.914062 -6.476562 8.632812 -12.152344 11.269531 -17.984375 C 11.671875 -18.945312 11.589844 -18.945312 12.152344 -18.945312 C 15.90625 -18.945312 19.503906 -19.425781 23.183594 -19.34375 C 23.902344 -19.34375 23.902344 -19.265625 23.980469 -16.945312 C 24.382812 -8.394531 25.5 -3.277344 27.816406 0 C 28.617188 1.117188 30.777344 1.917969 32.054688 1.519531 Z M 13.667969 -23.183594 C 13.667969 -23.261719 13.75 -23.421875 13.828125 -23.660156 C 17.1875 -30.457031 19.984375 -36.371094 22.300781 -41.40625 C 23.339844 -43.644531 24.539062 -45.722656 25.5 -47.082031 C 24.0625 -39.890625 23.980469 -31.894531 23.660156 -26.140625 C 23.660156 -26.140625 23.421875 -23.660156 23.5 -23.660156 C 20.304688 -23.660156 16.707031 -23.261719 13.667969 -23.183594 Z M 13.667969 -23.183594 "/></g></g></g><g fill="rgb(10.978699%, 75.289917%, 84.309387%)" fill-opacity="1"><g transform="translate(48.686034, 353.469315)"><g><path d="M 25.421875 -27.976562 C 25.261719 -31.574219 23.820312 -33.574219 20.625 -35.011719 C 17.984375 -36.210938 14.949219 -35.570312 12.390625 -33.414062 C 10.152344 -31.414062 9.273438 -29.335938 7.753906 -27.339844 C 8.234375 -29.976562 8.632812 -31.015625 8.714844 -33.253906 C 8.792969 -35.011719 7.832031 -35.972656 5.835938 -36.210938 L 5.914062 -36.210938 C 4.078125 -36.53125 3.355469 -35.890625 2.957031 -34.132812 C 0.71875 -22.863281 -1.359375 -11.671875 -3.515625 -0.71875 C -4.636719 4.957031 -5.277344 10.710938 -5.996094 16.386719 C -6.15625 18.144531 -5.035156 19.183594 -2.878906 19.585938 C -1.277344 19.90625 0.160156 19.183594 0.398438 17.746094 C 1.597656 10.3125 2.796875 2.878906 3.996094 -4.476562 L 4.796875 -3.199219 C 5.035156 -2.878906 5.4375 -2.398438 5.996094 -2 C 10.472656 0.960938 16.628906 0.238281 19.183594 -3.835938 C 19.90625 -4.957031 20.703125 -6.074219 21.023438 -6.792969 C 24.621094 -13.429688 25.980469 -20.304688 25.421875 -27.976562 Z M 13.988281 -6.636719 C 11.992188 -3.917969 9.992188 -3.757812 7.59375 -5.355469 C 7.113281 -5.835938 5.675781 -7.113281 4.316406 -6.554688 C 4.476562 -7.433594 4.554688 -8.3125 4.714844 -9.191406 C 5.4375 -14.628906 6.953125 -18.785156 9.113281 -21.742188 C 12.152344 -25.820312 15.027344 -28.855469 17.824219 -31.09375 C 19.105469 -32.136719 18.464844 -32.375 19.183594 -30.375 C 19.585938 -29.015625 19.425781 -27.257812 19.503906 -26.058594 C 19.34375 -18.867188 17.105469 -10.953125 13.988281 -6.636719 Z M 13.988281 -6.636719 "/></g></g></g><g fill="rgb(10.978699%, 75.289917%, 84.309387%)" fill-opacity="1"><g transform="translate(79.061217, 353.469315)"><g><path d="M 35.492188 -12.871094 C 33.414062 -13.269531 33.015625 -11.589844 32.855469 -11.429688 L 32.855469 -11.351562 C 30.617188 -8.234375 29.335938 -5.675781 25.980469 -3.996094 C 24.621094 -3.355469 24.0625 -3.597656 23.660156 -4.957031 C 23.183594 -6.636719 23.261719 -8.714844 23.902344 -11.832031 C 25.101562 -17.425781 26.460938 -22.78125 27.578125 -28.136719 C 28.058594 -30.535156 27.257812 -32.535156 25.019531 -34.773438 C 23.339844 -36.292969 20.464844 -36.691406 17.984375 -35.652344 C 15.109375 -34.453125 12.710938 -32.773438 10.152344 -30.136719 C 9.191406 -29.097656 8.394531 -28.136719 7.753906 -27.179688 L 8.554688 -31.65625 C 9.03125 -33.734375 8.472656 -34.613281 6.316406 -35.171875 L 6.234375 -35.171875 C 4.238281 -35.570312 3.039062 -34.613281 2.636719 -32.535156 C 1.679688 -27.417969 0.640625 -22.222656 -0.238281 -17.265625 L -2.71875 -4.398438 C -2.957031 -2.558594 -2.078125 -1.359375 0 -0.71875 L 0.078125 -0.71875 C 2.796875 -0.078125 3.199219 -2.238281 3.4375 -3.117188 C 5.996094 -10.871094 8.234375 -18.386719 12.949219 -24.539062 C 15.347656 -27.738281 17.507812 -30.375 20.625 -31.574219 C 21.742188 -32.136719 21.984375 -31.976562 21.582031 -29.976562 C 21.261719 -28.296875 20.863281 -26.9375 20.625 -25.578125 C 19.585938 -20.0625 17.746094 -14.789062 17.265625 -9.433594 C 17.105469 -7.433594 17.265625 -5.914062 17.984375 -4.078125 C 19.183594 -0.640625 24.78125 1.679688 28.21875 0.238281 C 31.894531 -1.4375 34.613281 -3.675781 36.132812 -6.476562 C 37.011719 -7.992188 37.410156 -9.113281 37.570312 -10.472656 C 37.730469 -11.671875 36.929688 -12.628906 35.492188 -12.871094 Z M 35.492188 -12.871094 "/></g></g></g><g fill="rgb(10.978699%, 75.289917%, 84.309387%)" fill-opacity="1"><g transform="translate(113.433128, 353.469315)"><g><path d="M 5.914062 0.71875 C 9.433594 1.839844 12.871094 0.558594 15.507812 -2.878906 L 15.429688 -2.878906 L 16.148438 -3.675781 C 18.144531 0.800781 24.78125 1.597656 28.777344 -2.316406 C 31.015625 -4.398438 33.015625 -7.113281 34.453125 -9.914062 C 35.09375 -11.191406 35.011719 -11.910156 33.972656 -13.347656 L 33.894531 -13.347656 C 33.015625 -14.390625 31.414062 -13.910156 30.214844 -11.832031 C 28.777344 -9.351562 28.058594 -8.632812 26.699219 -7.035156 C 25.578125 -5.59375 23.261719 -3.757812 21.902344 -4.316406 C 21.023438 -4.636719 20.863281 -6.476562 20.785156 -7.992188 C 20.625 -11.992188 22.542969 -16.628906 23.101562 -19.585938 C 23.5 -21.824219 23.023438 -22.621094 20.785156 -23.183594 C 18.707031 -23.742188 17.585938 -22.941406 16.945312 -20.785156 C 15.507812 -15.988281 13.988281 -10.792969 10.871094 -6.316406 C 9.671875 -4.714844 9.03125 -3.757812 7.992188 -3.355469 C 7.195312 -2.957031 7.433594 -2.957031 6.554688 -4.078125 C 5.277344 -5.59375 5.515625 -8.3125 5.277344 -11.03125 C 5.59375 -17.824219 7.515625 -23.820312 11.03125 -28.777344 C 14.390625 -33.332031 15.828125 -33.734375 17.984375 -31.015625 C 18.785156 -30.136719 18.546875 -29.015625 18.625 -28.058594 C 18.707031 -26.699219 20.222656 -25.660156 21.902344 -25.820312 C 23.5 -25.980469 24.222656 -26.859375 24.222656 -28.539062 C 24.0625 -31.976562 20.703125 -35.570312 16.546875 -36.53125 L 16.628906 -36.53125 C 14.390625 -37.171875 11.910156 -36.691406 10.070312 -35.253906 C 6.636719 -32.535156 4.398438 -29.65625 2.558594 -25.578125 C -0.078125 -19.585938 -1.917969 -14.308594 -0.960938 -7.753906 C -0.238281 -3.355469 1.917969 -0.640625 5.914062 0.71875 Z M 5.914062 0.71875 "/></g></g></g></svg>