<svg width="428" height="261" viewBox="0 0 428 261" fill="none" xmlns="http://www.w3.org/2000/svg">
<g clip-path="url(#clip0_231_3020)">
<path d="M164.991 233.942C162.655 234.763 160.148 234.968 157.709 234.539C155.271 234.109 152.984 233.059 151.07 231.489C146.193 227.397 144.665 220.654 143.421 214.41L139.741 195.944L147.444 201.248C152.984 205.062 158.648 208.999 162.484 214.524C166.32 220.049 167.994 227.591 164.912 233.569" fill="#1976D2"/>
<path d="M164.333 256.299C165.113 250.62 165.914 244.868 165.367 239.128C164.882 234.031 163.326 229.052 160.16 224.969C158.48 222.806 156.434 220.953 154.117 219.493C153.513 219.112 152.957 220.069 153.558 220.449C157.568 222.983 160.67 226.726 162.416 231.136C164.344 236.041 164.654 241.387 164.321 246.598C164.12 249.749 163.694 252.879 163.265 256.005C163.231 256.146 163.252 256.295 163.324 256.422C163.396 256.548 163.513 256.643 163.652 256.686C163.793 256.724 163.944 256.705 164.072 256.632C164.199 256.56 164.293 256.44 164.333 256.299V256.299Z" fill="#CCCCCC"/>
<path d="M156.823 246.25C155.822 247.773 154.445 249.012 152.825 249.848C151.205 250.683 149.398 251.088 147.576 251.023C142.895 250.801 138.993 247.533 135.48 244.432L125.089 235.258L131.966 234.929C136.912 234.692 141.985 234.471 146.695 235.996C151.405 237.521 155.749 241.192 156.611 246.067" fill="#1976D2"/>
<path d="M166.536 259.564C162.784 252.924 158.431 245.544 150.653 243.186C148.491 242.532 146.223 242.298 143.973 242.496C143.263 242.557 143.441 243.65 144.149 243.589C147.921 243.276 151.686 244.272 154.81 246.41C157.816 248.456 160.156 251.301 162.137 254.317C163.351 256.165 164.438 258.091 165.525 260.015C165.872 260.63 166.888 260.186 166.536 259.564V259.564Z" fill="#CCCCCC"/>
<path d="M267.117 126.547L185.304 194.354C184.274 195.206 182.949 195.614 181.62 195.489C180.29 195.365 179.063 194.718 178.21 193.69L143.722 152.078C142.87 151.049 142.462 149.724 142.587 148.394C142.711 147.064 143.358 145.838 144.386 144.984L226.199 77.1771C227.228 76.3259 228.553 75.9177 229.883 76.0422C231.213 76.1667 232.44 76.8137 233.293 77.8412L267.781 119.453C268.632 120.483 269.041 121.808 268.916 123.137C268.792 124.467 268.145 125.694 267.117 126.547Z" fill="#CCCCCC"/>
<path d="M263.839 124.505L183.906 190.754C183.376 191.192 182.693 191.403 182.008 191.339C181.323 191.274 180.691 190.941 180.252 190.412L147.322 150.681C146.884 150.15 146.673 149.468 146.738 148.783C146.802 148.097 147.135 147.466 147.664 147.026L227.597 80.7776C228.127 80.3391 228.81 80.1289 229.495 80.193C230.18 80.2571 230.812 80.5904 231.251 81.1197L264.181 120.851C264.619 121.381 264.83 122.064 264.765 122.749C264.701 123.434 264.368 124.066 263.839 124.505Z" fill="white"/>
<path d="M267.524 138.373L251.083 136.834L262.85 127.574L269.189 135.222C269.436 135.513 269.589 135.873 269.628 136.254C269.668 136.634 269.591 137.017 269.409 137.354C269.29 137.582 269.126 137.785 268.928 137.949C268.734 138.11 268.509 138.229 268.268 138.302C268.027 138.375 267.774 138.399 267.524 138.373V138.373Z" fill="#CCCCCC"/>
<path d="M234.509 108.926L194.072 142.44C193.825 142.645 193.54 142.799 193.234 142.893C192.927 142.988 192.605 143.021 192.286 142.991C191.967 142.961 191.656 142.869 191.372 142.719C191.089 142.569 190.837 142.365 190.633 142.118C190.428 141.871 190.274 141.586 190.179 141.28C190.085 140.973 190.052 140.651 190.081 140.332C190.111 140.012 190.204 139.702 190.354 139.418C190.504 139.134 190.708 138.883 190.955 138.678L231.391 105.164C231.638 104.96 231.923 104.806 232.23 104.711C232.536 104.616 232.858 104.583 233.178 104.613C233.497 104.643 233.807 104.736 234.091 104.885C234.375 105.035 234.626 105.239 234.831 105.486C235.036 105.733 235.19 106.018 235.284 106.325C235.379 106.631 235.412 106.953 235.382 107.273C235.352 107.592 235.26 107.903 235.11 108.186C234.96 108.47 234.756 108.721 234.509 108.926V108.926Z" fill="#CCCCCC"/>
<path d="M214.719 111.844L187.447 134.447C186.949 134.86 186.306 135.058 185.661 134.998C185.016 134.938 184.421 134.624 184.008 134.125C183.595 133.626 183.396 132.983 183.457 132.338C183.517 131.693 183.831 131.099 184.33 130.685L211.601 108.083C212.1 107.669 212.742 107.471 213.387 107.531C214.032 107.592 214.627 107.906 215.041 108.405C215.454 108.903 215.652 109.546 215.592 110.191C215.532 110.836 215.217 111.431 214.719 111.844Z" fill="#CCCCCC"/>
<path d="M172.462 158.069C176.678 158.069 180.096 154.652 180.096 150.436C180.096 146.22 176.678 142.802 172.462 142.802C168.246 142.802 164.829 146.22 164.829 150.436C164.829 154.652 168.246 158.069 172.462 158.069Z" fill="#1976D2"/>
<path d="M233.184 135.134C234.534 135.134 235.627 134.041 235.627 132.691C235.627 131.342 234.534 130.249 233.184 130.249C231.835 130.249 230.742 131.342 230.742 132.691C230.742 134.041 231.835 135.134 233.184 135.134Z" fill="#E6E6E6"/>
<path d="M239.767 129.678C241.116 129.678 242.21 128.585 242.21 127.236C242.21 125.887 241.116 124.793 239.767 124.793C238.418 124.793 237.324 125.887 237.324 127.236C237.324 128.585 238.418 129.678 239.767 129.678Z" fill="#E6E6E6"/>
<path d="M246.35 124.223C247.699 124.223 248.793 123.129 248.793 121.78C248.793 120.431 247.699 119.337 246.35 119.337C245.001 119.337 243.907 120.431 243.907 121.78C243.907 123.129 245.001 124.223 246.35 124.223Z" fill="#E6E6E6"/>
<path d="M207.415 255.31L213.023 255.31L215.691 233.679L207.414 233.679L207.415 255.31Z" fill="#FFB8B8"/>
<path d="M205.985 253.479L217.029 253.479H217.03C217.954 253.479 218.869 253.661 219.723 254.014C220.577 254.368 221.353 254.887 222.006 255.54C222.66 256.194 223.178 256.97 223.532 257.823C223.886 258.677 224.068 259.593 224.068 260.517V260.746L205.985 260.746L205.985 253.479Z" fill="#2F2E41"/>
<path d="M187.288 255.31L192.896 255.31L195.564 233.679L187.287 233.679L187.288 255.31Z" fill="#FFB8B8"/>
<path d="M185.858 253.479L196.902 253.479H196.903C197.827 253.479 198.742 253.661 199.596 254.014C200.45 254.368 201.226 254.887 201.879 255.54C202.533 256.194 203.051 256.97 203.405 257.823C203.759 258.677 203.941 259.593 203.941 260.517V260.746L185.858 260.746L185.858 253.479Z" fill="#2F2E41"/>
<path d="M192.916 248.691H192.915L188.146 248.69C187.613 248.692 187.099 248.486 186.715 248.115C186.331 247.745 186.107 247.239 186.09 246.706L185.94 242.534C184.734 209.168 183.488 174.667 191.208 159.16L191.269 159.038L216.83 158.113L221.962 205.188C222.181 207.196 222.101 209.225 221.724 211.209L214.94 246.957C214.848 247.442 214.585 247.877 214.2 248.184C213.814 248.491 213.33 248.65 212.837 248.63L207.48 248.457C207.2 248.445 206.925 248.377 206.672 248.256C206.418 248.134 206.193 247.962 206.008 247.751C205.824 247.539 205.685 247.292 205.6 247.024C205.515 246.757 205.485 246.475 205.513 246.195L209.721 213.132C209.864 211.705 209.734 210.264 209.339 208.885L204.106 190.591C204.062 190.44 203.968 190.308 203.839 190.218C203.711 190.127 203.555 190.084 203.398 190.095C203.241 190.106 203.092 190.171 202.977 190.278C202.862 190.386 202.788 190.529 202.766 190.685L194.955 246.916C194.885 247.408 194.64 247.857 194.266 248.183C193.891 248.509 193.412 248.69 192.916 248.691V248.691Z" fill="#2F2E41"/>
<path d="M195.973 111.048C202.178 111.048 207.208 106.018 207.208 99.8135C207.208 93.6086 202.178 88.5785 195.973 88.5785C189.768 88.5785 184.738 93.6086 184.738 99.8135C184.738 106.018 189.768 111.048 195.973 111.048Z" fill="#FFB8B8"/>
<path d="M215.632 161.588H192.384C192.088 161.588 191.796 161.524 191.528 161.401C191.259 161.278 191.02 161.099 190.827 160.875C190.633 160.652 190.49 160.389 190.408 160.106C190.325 159.822 190.304 159.524 190.347 159.232L191.495 151.366L184.751 132.815C184.055 130.9 183.796 128.853 183.994 126.825C184.192 124.797 184.841 122.839 185.894 121.095C186.947 119.35 188.378 117.864 190.08 116.744C191.783 115.624 193.714 114.9 195.733 114.624V114.624C198.61 114.223 201.539 114.754 204.093 116.138C206.646 117.522 208.689 119.687 209.923 122.316L211.405 125.468L217.656 159.154C217.711 159.451 217.7 159.757 217.624 160.049C217.547 160.341 217.408 160.613 217.215 160.845C217.021 161.078 216.779 161.265 216.506 161.393C216.232 161.521 215.934 161.588 215.632 161.588H215.632Z" fill="#1976D2"/>
<path d="M166.555 181.32C167.255 181.157 167.911 180.843 168.476 180.4C169.042 179.956 169.503 179.395 169.827 178.754C170.152 178.113 170.332 177.409 170.355 176.691C170.378 175.973 170.244 175.258 169.961 174.598L188.076 133.67L177.713 131.06L163.165 172.111C162.087 172.66 161.248 173.585 160.807 174.711C160.365 175.837 160.352 177.086 160.77 178.221C161.188 179.356 162.008 180.299 163.074 180.87C164.14 181.441 165.379 181.601 166.555 181.32H166.555Z" fill="#FFB8B8"/>
<path d="M185.624 140.99L175.545 136.272C175.258 136.138 175.004 135.944 174.799 135.702C174.594 135.461 174.444 135.178 174.358 134.873C174.272 134.568 174.253 134.249 174.302 133.936C174.351 133.623 174.467 133.324 174.642 133.06L180.767 123.81C181.463 122.347 182.71 121.22 184.235 120.676C185.76 120.131 187.439 120.213 188.904 120.904C190.368 121.595 191.499 122.838 192.049 124.361C192.599 125.885 192.522 127.564 191.836 129.031L188.669 139.626C188.578 139.929 188.423 140.21 188.214 140.448C188.005 140.686 187.748 140.876 187.459 141.005C187.17 141.135 186.856 141.2 186.54 141.198C186.223 141.195 185.911 141.124 185.624 140.99H185.624Z" fill="#1976D2"/>
<path d="M242.124 76.001C242.343 76.6852 242.409 77.4092 242.318 78.1217C242.226 78.8343 241.98 79.5182 241.596 80.1253C241.211 80.7323 240.699 81.2478 240.094 81.6353C239.489 82.0228 238.807 82.273 238.094 82.3682L212.218 118.887L204.669 111.323L232.479 77.8044C232.398 76.5976 232.763 75.4031 233.504 74.4473C234.245 73.4915 235.311 72.8408 236.5 72.6185C237.689 72.3962 238.918 72.6178 239.955 73.2412C240.991 73.8646 241.763 74.8465 242.124 76.001V76.001Z" fill="#FFB8B8"/>
<path d="M218.202 114.601C218.239 114.915 218.208 115.234 218.11 115.535C218.013 115.836 217.851 116.113 217.637 116.346L210.158 124.493C209.25 125.834 207.847 126.761 206.257 127.069C204.666 127.378 203.018 127.043 201.674 126.138C200.33 125.234 199.4 123.833 199.087 122.244C198.774 120.654 199.105 119.005 200.006 117.659L204.814 107.661C204.952 107.375 205.149 107.123 205.392 106.921C205.636 106.718 205.92 106.571 206.226 106.488C206.532 106.406 206.851 106.39 207.164 106.443C207.476 106.495 207.773 106.614 208.036 106.791L217.249 113.032C217.511 113.21 217.732 113.442 217.897 113.712C218.061 113.983 218.165 114.286 218.202 114.601V114.601Z" fill="#1976D2"/>
<path d="M210.735 95.1108C210.728 94.094 210.586 93.0825 210.315 92.1027C208.505 85.4139 201.822 81.3994 195.116 82.4068C193.812 82.0329 192.462 81.8439 191.105 81.8452V81.8452C187.654 81.8452 184.316 83.0794 181.695 85.3248C179.074 87.5702 177.342 90.6788 176.812 94.0893L171.396 128.961H200.671L205.398 98.5298C205.574 97.399 205.615 96.2513 205.521 95.1108H210.735Z" fill="#2F2E41"/>
<path d="M247.121 261H150.603C150.482 261 150.365 260.952 150.28 260.866C150.194 260.78 150.146 260.664 150.146 260.543C150.146 260.421 150.194 260.305 150.28 260.219C150.365 260.133 150.482 260.085 150.603 260.085H247.121C247.243 260.085 247.359 260.133 247.445 260.219C247.531 260.305 247.579 260.421 247.579 260.543C247.579 260.664 247.531 260.78 247.445 260.866C247.359 260.952 247.243 261 247.121 261Z" fill="#CCCCCC"/>
<path d="M344.358 36.4073C345.027 36.3429 345.703 36.426 346.336 36.6508C346.97 36.8757 347.547 37.2367 348.026 37.7086C348.505 38.1804 348.875 38.7516 349.11 39.3818C349.344 40.0121 349.438 40.6861 349.383 41.3564L364.345 47.9411L357.208 52.5479L344.095 45.5886C342.975 45.423 341.954 44.8523 341.227 43.9847C340.5 43.117 340.116 42.0127 340.148 40.881C340.181 39.7493 340.627 38.6688 341.403 37.8443C342.179 37.0197 343.23 36.5085 344.358 36.4073V36.4073Z" fill="#A0616A"/>
<path d="M404.708 28.1932C410.913 28.1932 415.943 23.1631 415.943 16.9582C415.943 10.7533 410.913 5.72318 404.708 5.72318C398.503 5.72318 393.473 10.7533 393.473 16.9582C393.473 23.1631 398.503 28.1932 404.708 28.1932Z" fill="#A0616A"/>
<path d="M384.374 177.158L378.766 177.157L376.098 155.526L384.375 155.527L384.374 177.158Z" fill="#A0616A"/>
<path d="M385.804 182.594L367.722 182.593V182.364C367.722 181.44 367.904 180.525 368.257 179.671C368.611 178.817 369.13 178.041 369.783 177.388C370.437 176.734 371.213 176.216 372.066 175.862C372.92 175.508 373.836 175.326 374.76 175.326H374.76L385.804 175.327L385.804 182.594Z" fill="#2F2E41"/>
<path d="M407.703 177.158L402.095 177.157L399.427 155.526L407.704 155.527L407.703 177.158Z" fill="#A0616A"/>
<path d="M409.133 182.594L391.051 182.593V182.364C391.051 181.44 391.233 180.525 391.586 179.671C391.94 178.817 392.459 178.041 393.112 177.388C393.766 176.734 394.542 176.216 395.396 175.862C396.249 175.508 397.165 175.326 398.089 175.326H398.089L409.134 175.327L409.133 182.594Z" fill="#2F2E41"/>
<path d="M407.437 172.55C407.353 172.55 407.27 172.545 407.186 172.535L398.977 171.524C398.496 171.466 398.052 171.239 397.722 170.885C397.391 170.53 397.197 170.071 397.173 169.587L394.781 115.718C394.773 115.565 394.714 115.419 394.613 115.304C394.513 115.189 394.376 115.11 394.226 115.081C394.076 115.052 393.92 115.074 393.784 115.143C393.648 115.213 393.538 115.326 393.474 115.465L387.328 135.95L386.063 168.857C386.052 169.14 385.983 169.419 385.859 169.674C385.735 169.93 385.56 170.157 385.344 170.342C385.128 170.526 384.877 170.664 384.605 170.747C384.333 170.829 384.047 170.855 383.765 170.821L376.657 169.985C376.148 169.926 375.68 169.68 375.344 169.295C375.008 168.909 374.828 168.412 374.839 167.9L375.443 136.926L380.259 88.3042L380.474 88.3122L409.76 89.4411L409.496 170.499C409.494 171.043 409.276 171.565 408.891 171.95C408.505 172.334 407.982 172.55 407.437 172.55H407.437Z" fill="#2F2E41"/>
<path d="M408.65 93.8841C408.632 93.8841 408.614 93.8841 408.596 93.8837L379.102 93.1108C378.812 93.1033 378.528 93.0349 378.267 92.9101C378.006 92.7853 377.775 92.607 377.587 92.3867C377.4 92.1664 377.261 91.9091 377.18 91.6315C377.099 91.354 377.077 91.0624 377.116 90.7759L382.783 49.0619C383.137 46.2453 384.081 43.535 385.554 41.108C387.026 38.6809 388.994 36.5917 391.328 34.9767C393.382 33.563 395.714 32.6052 398.169 32.1675C400.623 31.7299 403.143 31.8226 405.558 32.4394C415.853 35.0481 422.029 46.1029 419.326 57.0822L410.649 92.3179C410.537 92.7639 410.28 93.1599 409.918 93.4435C409.556 93.7271 409.11 93.8821 408.65 93.8841V93.8841Z" fill="#3F3D56"/>
<path d="M369.956 60.7595C368.012 60.7619 366.11 60.1968 364.483 59.1335L347.282 47.8487C347.031 47.6835 346.818 47.4651 346.66 47.2089C346.502 46.9527 346.402 46.6649 346.367 46.3659C346.332 46.0668 346.363 45.7637 346.458 45.478C346.553 45.1923 346.71 44.9309 346.917 44.7123L349.508 41.9766C349.791 41.6767 350.157 41.4689 350.559 41.3802C350.962 41.2915 351.382 41.3261 351.764 41.4794L370.977 49.1303L388.775 36.42C389.607 35.8257 390.554 35.4106 391.555 35.201C392.556 34.9914 393.589 34.9919 394.59 35.2023C395.591 35.4128 396.537 35.8287 397.369 36.4237C398.2 37.0186 398.9 37.7798 399.422 38.659C399.944 39.5381 400.279 40.5161 400.404 41.5311C400.529 42.5461 400.441 43.576 400.148 44.5556C399.854 45.5351 399.36 46.4431 398.698 47.222C398.035 48.0009 397.218 48.6339 396.298 49.0807L374.301 59.7651C372.946 60.4212 371.461 60.7612 369.956 60.7595V60.7595Z" fill="#3F3D56"/>
<path d="M408.601 27.7024C410.518 28.155 412.83 28.5023 414.2 27.0873C414.442 26.8201 414.659 26.5307 414.847 26.2227L416.638 23.4884C418.01 21.3939 419.406 19.2447 419.987 16.8091C420.321 15.4095 420.373 13.9576 420.141 12.5378C419.908 11.1179 419.396 9.75826 418.634 8.53793C417.872 7.3176 416.875 6.26087 415.701 5.42911C414.527 4.59736 413.2 4.00716 411.796 3.69282C409.122 3.09412 406.505 2.064 403.771 2.25191C401.038 2.43981 397.832 2.37812 395.538 0.879608C395.681 1.54767 396.454 4.49946 396.454 4.49946C396.454 4.49946 393.004 7.66428 392.312 8.45343C393.218 8.05195 394.203 7.86345 395.193 7.9024C396.183 7.94136 397.151 8.20673 398.022 8.67813C398.893 9.14953 399.645 9.81442 400.219 10.6217C400.793 11.4289 401.175 12.3571 401.334 13.3348C401.53 14.5359 401.415 15.8681 402.128 16.8539C402.807 17.7915 404.025 18.1201 405.048 18.6615C406.523 19.5017 407.649 20.8413 408.223 22.4387C408.797 24.0361 408.782 25.7861 408.18 27.3732L408.601 27.7024Z" fill="#2F2E41"/>
<path d="M395.111 97.9079H301.983C300.812 97.9066 299.69 97.4409 298.862 96.6131C298.034 95.7853 297.569 94.663 297.567 93.4923V46.1252C297.569 44.9545 298.034 43.8322 298.862 43.0044C299.69 42.1766 300.812 41.7109 301.983 41.7096H395.111C396.282 41.7109 397.404 42.1766 398.232 43.0044C399.06 43.8322 399.526 44.9545 399.527 46.1252V93.4923C399.526 94.663 399.06 95.7853 398.232 96.6131C397.404 97.4409 396.282 97.9066 395.111 97.9079V97.9079Z" fill="#CCCCCC"/>
<path d="M394.041 94.6965H303.053C302.45 94.6959 301.872 94.456 301.446 94.0296C301.019 93.6031 300.779 93.0249 300.779 92.4218V47.1957C300.779 46.5926 301.019 46.0144 301.446 45.5879C301.872 45.1615 302.45 44.9216 303.053 44.921H394.041C394.644 44.9216 395.222 45.1615 395.649 45.5879C396.075 46.0144 396.315 46.5926 396.316 47.1957V92.4218C396.315 93.0249 396.075 93.6031 395.649 94.0296C395.222 94.456 394.644 94.6959 394.041 94.6965V94.6965Z" fill="white"/>
<path d="M388.772 106.115L378.539 95.8823L391.658 96.2139V104.92C391.661 105.255 391.564 105.583 391.377 105.862C391.191 106.141 390.925 106.357 390.614 106.482C390.406 106.569 390.182 106.614 389.956 106.615C389.736 106.614 389.517 106.569 389.314 106.484C389.11 106.398 388.926 106.273 388.772 106.115V106.115Z" fill="#CCCCCC"/>
<path d="M382.963 67.7806H336.934C336.366 67.7806 335.821 67.5551 335.42 67.1536C335.018 66.7521 334.793 66.2075 334.793 65.6398C334.793 65.072 335.018 64.5274 335.42 64.1259C335.821 63.7244 336.366 63.4989 336.934 63.4989H382.963C383.53 63.4989 384.075 63.7244 384.476 64.1259C384.878 64.5274 385.104 65.072 385.104 65.6398C385.104 66.2075 384.878 66.7521 384.476 67.1536C384.075 67.5551 383.53 67.7806 382.963 67.7806V67.7806Z" fill="#CCCCCC"/>
<path d="M367.976 58.6819H336.934C336.652 58.6823 336.374 58.6272 336.113 58.5198C335.853 58.4124 335.617 58.2548 335.418 58.0559C335.219 57.8571 335.061 57.6209 334.953 57.361C334.845 57.101 334.79 56.8224 334.79 56.541C334.79 56.2596 334.845 55.9809 334.953 55.721C335.061 55.461 335.219 55.2249 335.418 55.026C335.617 54.8272 335.853 54.6696 336.113 54.5622C336.374 54.4548 336.652 54.3997 336.934 54.4001H367.976C368.544 54.4001 369.089 54.6257 369.49 55.0271C369.892 55.4286 370.117 55.9732 370.117 56.541C370.117 57.1088 369.892 57.6533 369.49 58.0548C369.089 58.4563 368.544 58.6819 367.976 58.6819Z" fill="#CCCCCC"/>
<path d="M317.88 67.7806C321.575 67.7806 324.57 64.7853 324.57 61.0904C324.57 57.3954 321.575 54.4001 317.88 54.4001C314.185 54.4001 311.189 57.3954 311.189 61.0904C311.189 64.7853 314.185 67.7806 317.88 67.7806Z" fill="#1976D2"/>
<path d="M368.778 85.2174C369.96 85.2174 370.919 84.2589 370.919 83.0765C370.919 81.8941 369.96 80.9356 368.778 80.9356C367.596 80.9356 366.637 81.8941 366.637 83.0765C366.637 84.2589 367.596 85.2174 368.778 85.2174Z" fill="#E6E6E6"/>
<path d="M376.271 85.2174C377.453 85.2174 378.412 84.2589 378.412 83.0765C378.412 81.8941 377.453 80.9356 376.271 80.9356C375.089 80.9356 374.13 81.8941 374.13 83.0765C374.13 84.2589 375.089 85.2174 376.271 85.2174Z" fill="#E6E6E6"/>
<path d="M383.764 85.2174C384.946 85.2174 385.905 84.2589 385.905 83.0765C385.905 81.8941 384.946 80.9356 383.764 80.9356C382.582 80.9356 381.623 81.8941 381.623 83.0765C381.623 84.2589 382.582 85.2174 383.764 85.2174Z" fill="#E6E6E6"/>
<path d="M393.669 92.2749C393.743 91.6065 393.963 90.9624 394.313 90.3881C394.662 89.8137 395.134 89.3231 395.694 88.9506C396.254 88.5782 396.888 88.333 397.553 88.2325C398.218 88.1319 398.897 88.1783 399.542 88.3685L409.049 75.0712L412.098 82.9996L402.603 94.4114C402.211 95.4738 401.444 96.3558 400.446 96.8902C399.448 97.4246 398.288 97.5743 397.187 97.311C396.086 97.0476 395.12 96.3895 394.471 95.4613C393.823 94.5331 393.538 93.3994 393.669 92.2749H393.669Z" fill="#A0616A"/>
<path d="M404.56 91.5574C404.41 91.5698 404.26 91.5661 404.111 91.5461C403.812 91.5062 403.526 91.4011 403.273 91.2382C403.019 91.0754 402.805 90.8588 402.645 90.6038L400.636 87.4162C400.415 87.0682 400.304 86.6617 400.318 86.2497C400.331 85.8378 400.469 85.4395 400.712 85.107L412.881 68.3863L404.972 47.9958C404.265 46.2017 404.292 44.2019 405.046 42.4273C405.8 40.6527 407.221 39.2455 409.003 38.5089V38.5089C410.01 38.0866 411.098 37.8927 412.189 37.9411C413.28 37.9895 414.346 38.2791 415.312 38.7889C416.277 39.2987 417.118 40.0162 417.773 40.8897C418.428 41.7631 418.881 42.7709 419.1 43.8406L424.008 67.7979C424.349 69.4874 424.248 71.2365 423.715 72.8757C423.182 74.5149 422.235 75.9887 420.965 77.1544L405.774 91.0262C405.439 91.3327 405.012 91.5195 404.56 91.5574V91.5574Z" fill="#3F3D56"/>
<path d="M430.094 183.694H333.576C333.455 183.694 333.338 183.646 333.253 183.56C333.167 183.474 333.119 183.358 333.119 183.236C333.119 183.115 333.167 182.999 333.253 182.913C333.338 182.827 333.455 182.779 333.576 182.779H430.094C430.216 182.779 430.332 182.827 430.418 182.913C430.504 182.999 430.552 183.115 430.552 183.236C430.552 183.358 430.504 183.474 430.418 183.56C430.332 183.646 430.216 183.694 430.094 183.694Z" fill="#CCCCCC"/>
<path d="M113.834 69.8496H20.705C19.5343 69.8483 18.412 69.3827 17.5842 68.5549C16.7564 67.7271 16.2907 66.6047 16.2894 65.434V18.067C16.2907 16.8963 16.7564 15.7739 17.5842 14.9461C18.412 14.1183 19.5343 13.6527 20.705 13.6514H113.834C115.004 13.6527 116.127 14.1183 116.954 14.9461C117.782 15.7739 118.248 16.8963 118.249 18.067V65.434C118.248 66.6047 117.782 67.7271 116.954 68.5549C116.127 69.3827 115.004 69.8483 113.834 69.8496V69.8496Z" fill="#CCCCCC"/>
<path d="M112.763 66.6383H21.7754C21.1723 66.6376 20.5942 66.3977 20.1677 65.9713C19.7413 65.5448 19.5014 64.9667 19.5007 64.3636V19.1374C19.5014 18.5343 19.7413 17.9561 20.1677 17.5297C20.5942 17.1032 21.1723 16.8634 21.7754 16.8627H112.763C113.366 16.8634 113.944 17.1032 114.371 17.5297C114.797 17.9561 115.037 18.5343 115.038 19.1374V64.3636C115.037 64.9667 114.797 65.5448 114.371 65.9713C113.944 66.3977 113.366 66.6376 112.763 66.6383Z" fill="white"/>
<path d="M107.494 78.0568L97.2607 67.824L110.38 68.1556V76.8613C110.383 77.1965 110.286 77.5249 110.099 77.8036C109.913 78.0824 109.647 78.2984 109.336 78.4234C109.128 78.5106 108.904 78.5557 108.678 78.5564C108.458 78.5556 108.239 78.5111 108.036 78.4254C107.833 78.3396 107.648 78.2143 107.494 78.0568V78.0568Z" fill="#CCCCCC"/>
<path d="M101.685 39.7224H55.6558C55.088 39.7224 54.5434 39.4968 54.1419 39.0953C53.7404 38.6938 53.5149 38.1493 53.5149 37.5815C53.5149 37.0137 53.7404 36.4691 54.1419 36.0676C54.5434 35.6661 55.088 35.4406 55.6558 35.4406H101.685C102.253 35.4406 102.797 35.6661 103.199 36.0676C103.6 36.4691 103.826 37.0137 103.826 37.5815C103.826 38.1493 103.6 38.6938 103.199 39.0953C102.797 39.4968 102.253 39.7224 101.685 39.7224V39.7224Z" fill="#CCCCCC"/>
<path d="M86.6986 30.6236H55.6558C55.088 30.6236 54.5434 30.398 54.1419 29.9966C53.7404 29.5951 53.5149 29.0505 53.5149 28.4827C53.5149 27.9149 53.7404 27.3704 54.1419 26.9689C54.5434 26.5674 55.088 26.3418 55.6558 26.3418H86.6986C87.2664 26.3418 87.8109 26.5674 88.2124 26.9689C88.6139 27.3704 88.8395 27.9149 88.8395 28.4827C88.8395 29.0505 88.6139 29.5951 88.2124 29.9966C87.8109 30.398 87.2664 30.6236 86.6986 30.6236V30.6236Z" fill="#CCCCCC"/>
<path d="M36.6018 39.7224C40.2967 39.7224 43.292 36.727 43.292 33.0321C43.292 29.3372 40.2967 26.3418 36.6018 26.3418C32.9068 26.3418 29.9115 29.3372 29.9115 33.0321C29.9115 36.727 32.9068 39.7224 36.6018 39.7224Z" fill="#1976D2"/>
<path d="M87.5 57.1591C88.6824 57.1591 89.6409 56.2006 89.6409 55.0183C89.6409 53.8359 88.6824 52.8774 87.5 52.8774C86.3176 52.8774 85.3591 53.8359 85.3591 55.0183C85.3591 56.2006 86.3176 57.1591 87.5 57.1591Z" fill="#E6E6E6"/>
<path d="M94.9931 57.1591C96.1754 57.1591 97.1339 56.2006 97.1339 55.0183C97.1339 53.8359 96.1754 52.8774 94.9931 52.8774C93.8107 52.8774 92.8522 53.8359 92.8522 55.0183C92.8522 56.2006 93.8107 57.1591 94.9931 57.1591Z" fill="#E6E6E6"/>
<path d="M102.486 57.1591C103.669 57.1591 104.627 56.2006 104.627 55.0183C104.627 53.8359 103.669 52.8774 102.486 52.8774C101.304 52.8774 100.345 53.8359 100.345 55.0183C100.345 56.2006 101.304 57.1591 102.486 57.1591Z" fill="#E6E6E6"/>
<path d="M109.971 9.1003C109.339 9.32808 108.764 9.69181 108.287 10.1659C107.81 10.64 107.442 11.2128 107.211 11.8442C106.979 12.4755 106.889 13.1499 106.946 13.82C107.004 14.49 107.207 15.1393 107.542 15.7222L96.8292 28.0684L105.25 29.1839L114.132 17.2888C115.074 16.6605 115.753 15.7085 116.04 14.6133C116.327 13.5181 116.202 12.3557 115.689 11.3463C115.176 10.337 114.311 9.55089 113.257 9.13693C112.203 8.72297 111.034 8.70994 109.971 9.1003V9.1003Z" fill="#FFB8B8"/>
<path d="M38.4397 14.0431C38.6682 14.6756 38.7552 15.3505 38.6947 16.0202C38.6342 16.6899 38.4276 17.3382 38.0894 17.9195C37.7512 18.5007 37.2897 19.0008 36.7373 19.3843C36.185 19.7679 35.5553 20.0257 34.8925 20.1396L32.2266 36.267L25.9929 30.4967L29.4802 16.0665C29.3627 14.9404 29.6623 13.8104 30.3223 12.8905C30.9823 11.9706 31.9569 11.3247 33.0612 11.0753C34.1656 10.8259 35.3231 10.9903 36.3144 11.5373C37.3057 12.0842 38.0619 12.9759 38.4397 14.0431V14.0431Z" fill="#FFB8B8"/>
<path d="M55.1821 177.158L60.7902 177.157L63.458 155.526L55.1812 155.527L55.1821 177.158Z" fill="#FFB8B8"/>
<path d="M53.7516 175.327L64.7957 175.326H64.7962C65.7205 175.326 66.6357 175.508 67.4896 175.862C68.3436 176.216 69.1195 176.734 69.773 177.388C70.4266 178.041 70.945 178.817 71.2987 179.671C71.6524 180.525 71.8345 181.44 71.8345 182.364V182.593L53.7519 182.594L53.7516 175.327Z" fill="#2F2E41"/>
<path d="M26.3638 177.158L31.972 177.157L34.6397 155.526L26.3629 155.527L26.3638 177.158Z" fill="#FFB8B8"/>
<path d="M24.9333 175.327L35.9775 175.326H35.978C36.9022 175.326 37.8175 175.508 38.6714 175.862C39.5253 176.216 40.3012 176.734 40.9548 177.388C41.6084 178.041 42.1268 178.817 42.4805 179.671C42.8342 180.525 43.0163 181.44 43.0162 182.364V182.593L24.9337 182.594L24.9333 175.327Z" fill="#2F2E41"/>
<path d="M54.0114 29.4729C60.2163 29.4729 65.2464 24.4428 65.2464 18.2379C65.2464 12.0329 60.2163 7.00284 54.0114 7.00284C47.8065 7.00284 42.7764 12.0329 42.7764 18.2379C42.7764 24.4428 47.8065 29.4729 54.0114 29.4729Z" fill="#FFB8B8"/>
<path d="M52.6647 169.972L51.7357 110.777C51.7334 110.61 51.6699 110.449 51.5574 110.325C51.4448 110.201 51.2908 110.123 51.1245 110.105C50.9581 110.087 50.7908 110.13 50.6541 110.226C50.5174 110.323 50.4206 110.466 50.3821 110.629L35.1537 168.529C35.0391 168.992 34.7689 169.402 34.3883 169.69C34.0077 169.978 33.5398 170.127 33.0628 170.111L24.6963 169.753C24.4119 169.741 24.1331 169.67 23.8775 169.544C23.622 169.419 23.3952 169.242 23.2116 169.024C23.0279 168.807 22.8914 168.554 22.8106 168.281C22.7298 168.008 22.7065 167.721 22.7422 167.438L35.6641 93.0332L35.6906 92.8233L71.6824 94.5261L71.9171 94.5369L64.1991 170.095C64.1586 170.613 63.925 171.096 63.5448 171.449C63.1645 171.802 62.6654 171.999 62.1465 172.001H54.7229C54.1827 171.999 53.6647 171.785 53.28 171.406C52.8953 171.027 52.6745 170.512 52.6647 169.972V169.972Z" fill="#2F2E41"/>
<path d="M81.0918 99.5405L28.8632 95.2543C28.5479 95.2284 28.2429 95.1303 27.9717 94.9675C27.7006 94.8046 27.4706 94.5815 27.2996 94.3153C27.1287 94.0492 27.0214 93.7473 26.986 93.433C26.9507 93.1186 26.9883 92.8004 27.0959 92.503L35.3208 69.7631L35.7941 42.7732C35.8113 41.7935 36.0228 40.8269 36.4165 39.9295C36.8101 39.0321 37.378 38.2219 38.0872 37.5457C38.7965 36.8695 39.6329 36.3409 40.548 35.9904C41.4631 35.64 42.4387 35.4748 43.4182 35.5043L46.8914 32.3559H59.617L60.7251 33.8086L69.5797 35.1693C71.1569 35.4183 72.6122 36.1678 73.7307 37.3072C74.8493 38.4466 75.5719 39.9155 75.7917 41.497L83.3001 97.2144C83.3392 97.5051 83.3158 97.8008 83.2313 98.0816C83.1469 98.3625 83.0034 98.6221 82.8105 98.843C82.6176 99.0639 82.3797 99.241 82.1128 99.3626C81.8459 99.4841 81.5561 99.5472 81.2628 99.5476C81.206 99.5476 81.149 99.5454 81.0918 99.5405Z" fill="#2F2E41"/>
<path d="M70.9156 37.7857L93.1851 31.261L103.264 17.9919C103.541 17.6264 103.933 17.3641 104.376 17.2468C104.82 17.1294 105.29 17.1637 105.712 17.3442L112.005 20.0338C112.273 20.1485 112.514 20.3188 112.711 20.5337C112.909 20.7485 113.058 21.0028 113.15 21.2798C113.241 21.5568 113.273 21.8501 113.243 22.1402C113.212 22.4304 113.121 22.7108 112.974 22.9629L105.442 35.888C104.216 38.0023 102.349 39.672 100.111 40.6558L73.918 52.2346L70.9156 37.7857Z" fill="#2F2E41"/>
<path d="M28.1909 47.5459C26.86 46.5872 25.7987 45.3016 25.1094 43.8133C24.42 42.325 24.1258 40.6841 24.2552 39.049L25.2325 26.1002C25.2728 25.583 25.5064 25.0999 25.8868 24.7472C26.2672 24.3945 26.7665 24.198 27.2853 24.1967H27.3035L34.6827 24.2624C34.985 24.2652 35.283 24.3345 35.5555 24.4654C35.828 24.5963 36.0683 24.7856 36.2594 25.0199C36.4504 25.2542 36.5876 25.5276 36.661 25.8209C36.7345 26.1141 36.7425 26.42 36.6844 26.7166L35.3152 33.7023L45.0861 37.8308L36.8582 53.8378L28.1909 47.5459Z" fill="#2F2E41"/>
<path d="M60.5473 4.76601C60.5473 4.76601 48.7982 -1.56038 42.3941 5.90611C35.99 13.3726 44.834 25.0486 44.834 25.0486L57.4354 26.6379C57.4354 26.6379 57.8928 18.0718 60.8931 18.2381C63.8934 18.4044 73.2114 7.59522 60.5473 4.76601Z" fill="#2F2E41"/>
<path d="M93.424 183.236H-3.09433C-3.21564 183.236 -3.33199 183.188 -3.41778 183.102C-3.50356 183.017 -3.55176 182.9 -3.55176 182.779C-3.55176 182.658 -3.50356 182.541 -3.41778 182.456C-3.33199 182.37 -3.21564 182.322 -3.09433 182.322H93.424C93.5453 182.322 93.6616 182.37 93.7474 182.456C93.8332 182.541 93.8814 182.658 93.8814 182.779C93.8814 182.9 93.8332 183.017 93.7474 183.102C93.6616 183.188 93.5453 183.236 93.424 183.236Z" fill="#CCCCCC"/>
</g>
<defs>
<clipPath id="clip0_231_3020">
<rect width="434.104" height="260.12" fill="white" transform="translate(-3.55176 0.879608)"/>
</clipPath>
</defs>
</svg>
